# Blender 4.5.3 LTS
# www.blender.org
mtllib armag3.mtl
o simplify_output.001
v 0.017554 -0.244244 0.058373
v 0.025687 -0.233251 0.025900
v 0.025528 -0.230193 -0.000549
v 0.011797 -0.229935 0.057863
v 0.025155 -0.253587 0.053044
v 0.019835 -0.332232 0.057700
v 0.029344 -0.301995 0.013067
v 0.027837 -0.292416 0.050346
v -0.004785 -0.291559 0.058303
v 0.025725 -0.329877 0.055712
v 0.028105 -0.352127 0.051022
v -0.002766 -0.342236 0.058102
v 0.024267 -0.369429 0.055646
v 0.028965 -0.353494 0.017238
v 0.007975 -0.390964 0.061091
v 0.025205 -0.399194 0.051039
v 0.020584 -0.395423 0.058224
v 0.016603 -0.404703 0.058514
v 0.025060 -0.403338 -0.010838
v 0.007378 -0.412249 0.059280
v 0.020557 -0.435272 0.051841
v 0.015653 -0.436634 0.057938
v 0.018403 -0.450505 -0.015319
v 0.014855 -0.470845 0.049269
v -0.005990 -0.464095 0.061325
v 0.012519 -0.476304 0.053363
v 0.006026 -0.470855 0.059829
v 0.004181 -0.474495 0.058286
v 0.006773 -0.482097 0.058815
v 0.004557 -0.507845 0.057718
v 0.005244 -0.513733 0.051415
v 0.001217 -0.517597 0.056482
v 0.022389 -0.227355 -0.018469
v 0.026127 -0.254657 -0.015245
v 0.022537 -0.249412 -0.021888
v 0.016254 -0.242190 -0.024825
v 0.027588 -0.287025 -0.017283
v 0.016308 -0.277939 -0.023587
v 0.025695 -0.345072 -0.021348
v 0.028625 -0.353890 -0.016146
v -0.001671 -0.343813 -0.022667
v 0.017081 -0.393063 -0.024153
v 0.024046 -0.394475 -0.019877
v 0.019409 -0.401563 -0.022230
v -0.007362 -0.399453 -0.021307
v 0.013576 -0.407276 -0.024425
v 0.016252 -0.445979 -0.022389
v 0.007275 -0.445890 -0.024902
v 0.012040 -0.476762 -0.020921
v 0.008360 -0.475109 -0.024269
v 0.007899 -0.503636 -0.017266
v -0.002904 -0.473849 -0.023492
v 0.002378 -0.483996 -0.027085
v 0.003393 -0.508737 -0.024876
v 0.001065 -0.520566 -0.022849
v -0.003679 -0.544604 -0.020194
v -0.179950 -0.191321 0.057245
v -0.187749 -0.192746 0.053866
v -0.103779 -0.206800 0.057913
v -0.123648 -0.202847 0.057579
v -0.135976 -0.200798 0.054587
v -0.147092 -0.197537 0.057324
v -0.178892 -0.270229 0.056072
v -0.191138 -0.194652 0.046474
v -0.023414 -0.222870 0.055531
v -0.036600 -0.220244 0.057609
v -0.073310 -0.213433 0.057180
v -0.084316 -0.211612 0.055638
v -0.091412 -0.214292 0.054957
v -0.118156 -0.234341 0.057254
v -0.126867 -0.225848 0.054144
v -0.137217 -0.262182 0.056811
v -0.186211 -0.251521 0.049885
v -0.013460 -0.227232 0.056730
v -0.022717 -0.275763 0.054863
v -0.174205 -0.290777 0.056911
v -0.010581 -0.243616 0.059174
v -0.014439 -0.280911 0.054932
v -0.095396 -0.262273 0.057621
v -0.121168 -0.264289 0.054314
v -0.026208 -0.305773 0.057595
v -0.073947 -0.290177 0.057493
v -0.089311 -0.335853 0.055066
v -0.130488 -0.284287 0.054218
v -0.185392 -0.287180 -0.009903
v -0.102828 -0.338293 0.057110
v -0.185407 -0.298388 0.049912
v -0.008782 -0.344289 0.055333
v -0.082335 -0.289602 0.054952
v -0.080678 -0.322127 0.057561
v -0.092171 -0.320057 0.055131
v -0.115629 -0.298152 0.056951
v -0.125829 -0.322463 0.053872
v -0.016528 -0.343373 0.055315
v -0.051107 -0.336199 0.057665
v -0.066532 -0.336769 0.057594
v -0.149879 -0.349246 0.056915
v -0.185025 -0.325517 0.052723
v -0.186929 -0.326426 0.047176
v -0.186379 -0.320308 -0.008622
v -0.123462 -0.346099 0.057067
v -0.141861 -0.353412 0.053762
v -0.169368 -0.350589 0.057109
v -0.183629 -0.370172 0.056430
v -0.187416 -0.369103 0.054427
v -0.027602 -0.395936 0.058903
v -0.104375 -0.385102 0.055254
v -0.190281 -0.364580 0.049589
v -0.007333 -0.403000 0.059136
v -0.049489 -0.383264 0.058617
v -0.058536 -0.372647 0.055930
v -0.067292 -0.387522 0.055506
v -0.090950 -0.389287 0.057796
v -0.096164 -0.377929 0.055080
v -0.113730 -0.397160 0.057624
v -0.132624 -0.361957 0.054027
v -0.010564 -0.398905 0.056634
v -0.078389 -0.417310 0.058222
v -0.016090 -0.420731 0.055959
v -0.025577 -0.431479 0.056092
v -0.134214 -0.399020 0.057654
v -0.151575 -0.403142 0.055083
v -0.166214 -0.443858 0.057764
v -0.195114 -0.400616 0.049510
v -0.193797 -0.413004 0.054900
v -0.105074 -0.428497 0.056030
v -0.139746 -0.393211 0.054507
v -0.200574 -0.436402 0.019312
v -0.031067 -0.424518 0.058980
v -0.059486 -0.433085 0.059223
v -0.077758 -0.448565 0.056218
v -0.063247 -0.419358 0.056325
v -0.087132 -0.464478 0.059760
v -0.115365 -0.473801 0.056218
v -0.117343 -0.446883 0.055836
v -0.191907 -0.435705 0.057660
v -0.069042 -0.448042 0.056252
v -0.102811 -0.440304 0.059147
v -0.125078 -0.446056 0.058734
v -0.143003 -0.438816 0.058454
v -0.153350 -0.458008 0.056450
v -0.174137 -0.471551 0.059210
v -0.201496 -0.440715 0.052502
v -0.019240 -0.466996 0.060168
v -0.023206 -0.456876 0.056494
v -0.036422 -0.458449 0.058750
v -0.108229 -0.469913 0.060027
v -0.132698 -0.479748 0.060412
v -0.205550 -0.466663 0.055190
v -0.207995 -0.475036 0.019067
v -0.006797 -0.471905 0.058901
v -0.034264 -0.464784 0.056933
v -0.026841 -0.466830 0.056461
v -0.024570 -0.477700 0.061129
v -0.047649 -0.485181 0.060611
v -0.074770 -0.505248 0.061231
v -0.080555 -0.498648 0.057349
v -0.124713 -0.477360 0.056671
v -0.152762 -0.475312 0.060089
v -0.167037 -0.470917 0.055980
v -0.203241 -0.481799 0.059348
v -0.212786 -0.489457 0.050816
v -0.018198 -0.473930 0.061390
v -0.030824 -0.486491 0.058406
v -0.035072 -0.504930 0.057520
v -0.091225 -0.511010 0.058049
v -0.114569 -0.493347 0.060983
v -0.122818 -0.498824 0.057411
v -0.161934 -0.483604 0.056345
v -0.213595 -0.496763 0.034523
v -0.002198 -0.505905 0.063198
v -0.044410 -0.504447 0.057872
v -0.098350 -0.517186 0.061471
v -0.127063 -0.538776 0.061316
v -0.143446 -0.522004 0.061212
v -0.131885 -0.500451 0.057618
v -0.160854 -0.501702 0.061094
v -0.167615 -0.505066 0.057635
v -0.175309 -0.501004 0.057477
v -0.189878 -0.527169 0.060869
v -0.213181 -0.505489 0.058489
v -0.211305 -0.520731 0.061005
v -0.027380 -0.502188 0.063569
v -0.001129 -0.515752 0.057260
v -0.028907 -0.509191 0.059028
v -0.036149 -0.520832 0.060668
v -0.057324 -0.528641 0.061195
v -0.146028 -0.549711 0.058424
v -0.164037 -0.511150 0.061057
v -0.172036 -0.522019 0.058205
v -0.193427 -0.555231 0.059545
v -0.221187 -0.524023 0.055884
v -0.227040 -0.545770 0.002067
v -0.008492 -0.537382 0.059748
v -0.001618 -0.537432 0.053243
v -0.042815 -0.528143 0.057830
v -0.055424 -0.549233 0.058224
v -0.088387 -0.535082 0.058288
v -0.085330 -0.544800 0.061298
v -0.096371 -0.534667 0.058019
v -0.131937 -0.537602 0.058219
v -0.172464 -0.539035 0.061164
v -0.181395 -0.546755 0.058281
v -0.221973 -0.543215 0.060477
v -0.229557 -0.545912 0.053212
v -0.226234 -0.542381 0.057914
v -0.006630 -0.550647 0.055943
v -0.032179 -0.545346 0.061320
v -0.025826 -0.552600 0.063814
v -0.019106 -0.550419 0.060711
v -0.043670 -0.549842 0.061142
v -0.052935 -0.565839 0.058235
v -0.070365 -0.579206 0.061838
v -0.107956 -0.554957 0.061336
v -0.102286 -0.560110 0.058218
v -0.141447 -0.584960 0.060778
v -0.155234 -0.562396 0.061154
v -0.215365 -0.549301 0.071743
v -0.214878 -0.547289 0.061722
v -0.219951 -0.544996 0.072432
v -0.227983 -0.544382 0.069677
v -0.226011 -0.547152 0.073839
v -0.220814 -0.547157 0.075228
v -0.228053 -0.547755 0.032913
v -0.012547 -0.559667 0.059618
v -0.025383 -0.562085 0.063068
v -0.045582 -0.567063 0.062042
v -0.097439 -0.570013 0.058450
v -0.139980 -0.561552 0.058191
v -0.180505 -0.574257 0.062536
v -0.216717 -0.554806 0.072876
v -0.214853 -0.563758 0.060596
v -0.233862 -0.568569 0.067377
v -0.236435 -0.566267 0.055326
v -0.221037 -0.572977 0.068441
v -0.228737 -0.571345 0.071422
v -0.235088 -0.564881 0.025698
v -0.236402 -0.565537 -0.017580
v -0.016190 -0.582804 0.058656
v -0.014485 -0.588520 0.049705
v -0.012605 -0.580020 -0.017886
v -0.020390 -0.577714 0.061871
v -0.036106 -0.585100 0.061444
v -0.065364 -0.592792 0.058049
v -0.053898 -0.589716 0.059435
v -0.149061 -0.584552 0.058432
v -0.155160 -0.583701 0.058588
v -0.161734 -0.581536 0.062117
v -0.183908 -0.577393 0.060338
v -0.200821 -0.577817 0.053503
v -0.216287 -0.569882 0.058499
v -0.218523 -0.573893 0.054742
v -0.233927 -0.580655 0.067907
v -0.226352 -0.583501 0.066369
v -0.221574 -0.583956 0.054151
v -0.237988 -0.578089 0.063105
v -0.235224 -0.569844 0.033783
v -0.239703 -0.579409 0.047048
v -0.239026 -0.579612 0.013227
v -0.235295 -0.569678 0.000170
v -0.032163 -0.601854 0.062722
v -0.019716 -0.597418 0.056439
v -0.043064 -0.597135 0.060595
v -0.065059 -0.599990 0.060278
v -0.073182 -0.602483 0.062485
v -0.094227 -0.598183 0.061763
v -0.108255 -0.595905 0.057695
v -0.123266 -0.590780 0.061343
v -0.135802 -0.595069 0.053478
v -0.136025 -0.607173 0.050822
v -0.165744 -0.585548 0.052596
v -0.170831 -0.597479 0.051001
v -0.209651 -0.588239 0.050748
v -0.210516 -0.591525 0.046502
v -0.218243 -0.591154 -0.010762
v -0.226081 -0.587962 0.050609
v -0.234028 -0.587884 0.039541
v -0.235565 -0.584510 0.062896
v -0.238709 -0.583354 0.055489
v -0.239912 -0.583277 -0.020599
v -0.237163 -0.586183 -0.023378
v -0.035151 -0.606396 0.065412
v -0.022188 -0.612757 0.068686
v -0.017588 -0.614292 0.064944
v -0.026431 -0.606172 0.060498
v -0.022378 -0.608609 0.053757
v -0.021100 -0.610215 0.005859
v -0.040721 -0.615332 0.066164
v -0.046043 -0.613245 0.062476
v -0.064633 -0.604898 0.062568
v -0.069932 -0.607453 0.060685
v -0.061527 -0.613161 0.052792
v -0.100399 -0.603400 0.052762
v -0.081773 -0.607760 0.052901
v -0.133566 -0.611841 0.047763
v -0.166214 -0.602734 0.048198
v -0.210967 -0.592672 0.038463
v -0.026685 -0.615604 0.069536
v -0.019940 -0.619992 0.066325
v -0.025191 -0.630509 0.060902
v -0.031714 -0.633883 0.061465
v -0.028701 -0.640568 0.053498
v -0.017072 -0.617147 0.048655
v -0.017749 -0.615413 -0.002501
v -0.017343 -0.617621 -0.024440
v -0.047931 -0.618911 0.054997
v -0.052256 -0.630424 0.050854
v -0.074978 -0.628853 0.046014
v -0.094065 -0.621419 0.049304
v -0.137418 -0.612845 -0.011891
v -0.150917 -0.608809 0.043536
v -0.031335 -0.644088 0.030587
v -0.026868 -0.640723 0.041126
v -0.027717 -0.641021 -0.016845
v -0.043725 -0.635667 0.056701
v -0.041859 -0.641459 0.043514
v -0.053647 -0.635794 0.046512
v -0.071956 -0.631098 0.037976
v -0.078425 -0.629755 -0.007167
v -0.169827 -0.192841 -0.021490
v -0.185488 -0.193642 -0.020120
v -0.104251 -0.206498 -0.022778
v -0.124300 -0.202865 -0.021545
v -0.136783 -0.200719 -0.018829
v -0.142075 -0.198584 -0.020686
v -0.154878 -0.195533 -0.021793
v -0.190420 -0.201895 -0.014308
v -0.019961 -0.224214 -0.019573
v -0.032311 -0.220424 -0.022601
v -0.035841 -0.222492 -0.022350
v -0.076895 -0.212467 -0.021630
v -0.085576 -0.210362 -0.020840
v -0.094780 -0.209022 -0.020786
v -0.084575 -0.242927 -0.019455
v -0.126491 -0.227465 -0.018456
v -0.138463 -0.253044 -0.020550
v -0.012217 -0.241356 -0.024246
v -0.021713 -0.285627 -0.019124
v -0.032325 -0.255184 -0.022313
v -0.017517 -0.247096 -0.019252
v -0.094634 -0.275116 -0.022301
v -0.176593 -0.292606 -0.020746
v -0.186950 -0.242273 -0.012955
v -0.116915 -0.260729 -0.021707
v -0.183538 -0.259606 -0.018083
v -0.006818 -0.284588 -0.022420
v -0.071846 -0.287015 -0.021864
v -0.128729 -0.282925 -0.018333
v -0.089130 -0.293782 -0.019671
v -0.116493 -0.304842 -0.021815
v -0.184208 -0.308092 -0.015841
v -0.027434 -0.296381 -0.022096
v -0.084359 -0.308541 -0.019449
v -0.102544 -0.340415 -0.021953
v -0.125441 -0.322168 -0.017484
v -0.136060 -0.333969 -0.017357
v -0.085758 -0.363996 -0.021620
v -0.010506 -0.322222 -0.018970
v -0.069069 -0.352390 -0.021781
v -0.124361 -0.348993 -0.021227
v -0.149541 -0.350999 -0.020716
v -0.188839 -0.360544 -0.015475
v -0.184967 -0.355968 -0.019088
v -0.019285 -0.350139 -0.020622
v -0.025582 -0.388169 -0.022228
v -0.052379 -0.351302 -0.022052
v -0.103325 -0.376991 -0.018878
v -0.159776 -0.408154 -0.020850
v -0.191334 -0.372422 -0.008767
v -0.008970 -0.357602 -0.019606
v -0.093337 -0.369080 -0.018617
v -0.110555 -0.382387 -0.022274
v -0.148601 -0.391699 -0.018059
v -0.004666 -0.393898 -0.023808
v -0.066142 -0.382628 -0.018699
v -0.054471 -0.403559 -0.021947
v -0.060407 -0.402716 -0.019245
v -0.134795 -0.398063 -0.022047
v -0.183955 -0.399946 -0.021179
v -0.073023 -0.381725 -0.021955
v -0.100549 -0.406983 -0.018646
v -0.140804 -0.398216 -0.018252
v -0.196159 -0.406953 -0.014939
v -0.193038 -0.420927 -0.020353
v -0.006875 -0.403942 -0.023482
v -0.016107 -0.421749 -0.019036
v -0.023208 -0.426106 -0.019076
v -0.079002 -0.425561 -0.022423
v -0.119478 -0.431336 -0.022674
v -0.143199 -0.438878 -0.022431
v -0.010974 -0.429353 -0.023841
v -0.063516 -0.459960 -0.023561
v -0.098894 -0.430191 -0.022357
v -0.113833 -0.430366 -0.019766
v -0.149002 -0.439060 -0.018757
v -0.204444 -0.453341 -0.014150
v -0.018466 -0.464682 -0.025340
v -0.023157 -0.457513 -0.020599
v -0.033199 -0.461273 -0.020865
v -0.040011 -0.462539 -0.024143
v -0.066402 -0.438978 -0.019760
v -0.078219 -0.453076 -0.020796
v -0.112668 -0.466152 -0.020352
v -0.083922 -0.456897 -0.024125
v -0.131572 -0.461706 -0.024523
v -0.161938 -0.448047 -0.019104
v -0.169278 -0.452135 -0.021861
v -0.201976 -0.449413 -0.018190
v 0.004486 -0.470138 -0.026288
v -0.021974 -0.469846 -0.021598
v -0.075730 -0.484224 -0.020807
v -0.086911 -0.491906 -0.022248
v -0.124828 -0.478797 -0.020632
v -0.108888 -0.479971 -0.024585
v -0.135921 -0.494716 -0.025180
v -0.163526 -0.493758 -0.021083
v -0.175818 -0.500662 -0.021692
v -0.185975 -0.475372 -0.024172
v -0.213365 -0.499287 -0.021286
v -0.202663 -0.481199 -0.023985
v -0.024454 -0.476827 -0.025488
v -0.030247 -0.481797 -0.020934
v -0.051334 -0.509046 -0.026015
v -0.091817 -0.491372 -0.025043
v -0.160137 -0.501720 -0.025080
v -0.181147 -0.499535 -0.024631
v -0.215648 -0.500202 -0.015078
v -0.003098 -0.511010 -0.027412
v -0.030577 -0.500441 -0.027590
v -0.037054 -0.508149 -0.021131
v -0.044195 -0.507887 -0.021884
v -0.079509 -0.529288 -0.026251
v -0.087139 -0.533180 -0.022787
v -0.125423 -0.513325 -0.021420
v -0.121800 -0.521550 -0.025910
v -0.025005 -0.505261 -0.027919
v -0.015086 -0.513672 -0.024478
v -0.007942 -0.518262 -0.024238
v -0.032866 -0.509777 -0.022756
v -0.036193 -0.520946 -0.025335
v -0.054664 -0.548841 -0.023503
v -0.098889 -0.522072 -0.026246
v -0.137412 -0.520644 -0.022539
v -0.167147 -0.523147 -0.026141
v -0.212742 -0.519808 -0.026352
v -0.228810 -0.543633 -0.017356
v -0.004944 -0.530804 -0.026649
v -0.012788 -0.526280 -0.027456
v -0.060061 -0.548439 -0.027505
v -0.097037 -0.536750 -0.023759
v -0.156207 -0.567063 -0.027711
v -0.174113 -0.529120 -0.023400
v -0.196799 -0.558609 -0.026361
v -0.183231 -0.549366 -0.024276
v -0.226408 -0.541020 -0.022609
v -0.222979 -0.541612 -0.025762
v -0.044085 -0.547760 -0.026907
v -0.036737 -0.554249 -0.028966
v -0.045859 -0.542541 -0.023316
v -0.086215 -0.553044 -0.027914
v -0.139487 -0.562559 -0.024411
v -0.134775 -0.569696 -0.027945
v -0.157523 -0.583180 -0.026808
v -0.179512 -0.562774 -0.028018
v -0.216724 -0.544493 -0.027109
v -0.212256 -0.551423 -0.027126
v -0.228689 -0.545478 -0.033423
v -0.220798 -0.545657 -0.038296
v -0.011551 -0.564105 -0.025721
v -0.016641 -0.567356 -0.027736
v -0.032499 -0.567173 -0.027798
v -0.046993 -0.564966 -0.026234
v -0.093530 -0.555463 -0.024531
v -0.109740 -0.577193 -0.026420
v -0.174217 -0.574711 -0.029912
v -0.214929 -0.570257 -0.024030
v -0.216750 -0.550763 -0.038067
v -0.224126 -0.551035 -0.038923
v -0.220834 -0.571491 -0.031833
v -0.023845 -0.569208 -0.028566
v -0.053587 -0.572537 -0.024332
v -0.066478 -0.568785 -0.028405
v -0.073034 -0.591082 -0.029807
v -0.117646 -0.590773 -0.028328
v -0.138033 -0.587938 -0.027609
v -0.152162 -0.584118 -0.025421
v -0.162017 -0.582701 -0.028709
v -0.183468 -0.577555 -0.027820
v -0.180392 -0.582154 -0.021245
v -0.199123 -0.578287 -0.021012
v -0.204696 -0.572130 -0.025880
v -0.218584 -0.577215 -0.021182
v -0.226185 -0.586874 -0.024704
v -0.228273 -0.577814 -0.032514
v -0.236843 -0.580436 -0.028565
v -0.240112 -0.577367 -0.020317
v -0.022295 -0.607461 -0.024364
v -0.029539 -0.595383 -0.030241
v -0.059601 -0.587536 -0.025693
v -0.057919 -0.593690 -0.028374
v -0.039139 -0.607516 -0.033615
v -0.093697 -0.596435 -0.030039
v -0.105857 -0.596551 -0.025472
v -0.113475 -0.595383 -0.026260
v -0.116965 -0.598949 -0.021154
v -0.147190 -0.585959 -0.025735
v -0.144614 -0.591486 -0.021127
v -0.159774 -0.587317 -0.021274
v -0.128304 -0.611108 -0.018030
v -0.180247 -0.596399 -0.017707
v -0.205020 -0.591402 -0.017198
v -0.191780 -0.595861 -0.015669
v -0.184685 -0.599836 -0.008392
v -0.219780 -0.586975 -0.018741
v -0.233585 -0.584062 -0.029041
v -0.226056 -0.589952 -0.016820
v -0.021027 -0.609561 -0.015557
v -0.026489 -0.605488 -0.028893
v -0.033777 -0.602521 -0.031402
v -0.019827 -0.610690 -0.033645
v -0.017607 -0.612483 -0.028435
v -0.030833 -0.607558 -0.034428
v -0.027143 -0.612813 -0.036629
v -0.047632 -0.610672 -0.030847
v -0.063405 -0.612539 -0.020836
v -0.053726 -0.607404 -0.030504
v -0.092711 -0.601016 -0.028212
v -0.066682 -0.606429 -0.030020
v -0.085346 -0.606969 -0.021402
v -0.103374 -0.602700 -0.021277
v -0.154247 -0.606058 -0.016226
v -0.171121 -0.602523 -0.014263
v -0.018048 -0.617264 -0.031054
v -0.021777 -0.615222 -0.035576
v -0.028649 -0.637862 -0.024176
v -0.041549 -0.619759 -0.030292
v -0.050209 -0.616595 -0.022205
v -0.052758 -0.630994 -0.018673
v -0.095589 -0.623006 -0.014770
v -0.106909 -0.615812 -0.018075
v -0.111718 -0.618961 -0.013882
v -0.044302 -0.640808 -0.008620
v -0.051540 -0.635911 -0.016244
v -0.033734 -0.642177 -0.018110
v -0.043145 -0.636169 -0.024107
v -0.078453 -0.627772 -0.014838
vn 0.9997 0.0262 -0.0030
vn 0.0295 0.0474 0.9984
vn 0.9977 0.0434 0.0520
vn 0.9982 0.0566 -0.0188
vn 0.0281 -0.0148 0.9995
vn 0.3195 0.0010 0.9476
vn 0.9975 0.0673 0.0230
vn 0.0124 -0.0073 0.9999
vn 0.6003 0.0324 0.7992
vn 0.8610 0.0242 0.5080
vn 0.9992 0.0049 0.0391
vn 0.0192 -0.0032 0.9998
vn 0.9079 0.0088 0.4190
vn 0.3247 -0.0135 0.9457
vn 0.9997 -0.0053 0.0257
vn 0.8235 -0.0313 0.5665
vn 0.8562 -0.0526 0.5140
vn 0.9977 -0.0615 0.0279
vn -0.0085 0.0593 0.9982
vn 0.5093 0.0132 0.8605
vn 0.2253 0.0107 0.9742
vn 0.8246 -0.0611 0.5624
vn 0.2024 -0.0563 0.9777
vn 0.8147 -0.0923 0.5725
vn 0.4037 -0.1450 0.9033
vn 0.1537 -0.0880 0.9842
vn -0.0618 -0.0829 0.9946
vn 0.7826 -0.0345 0.6216
vn 0.9918 -0.1276 0.0062
vn 0.9902 -0.1398 -0.0001
vn 0.0997 -0.0209 0.9948
vn 0.9367 -0.1722 0.3049
vn 0.9873 -0.1586 0.0043
vn 0.7866 -0.1317 0.6032
vn 0.1749 0.0052 0.9846
vn 0.1271 0.0064 0.9919
vn 0.6385 -0.1378 0.7572
vn 0.3522 -0.5109 0.7842
vn 0.5316 0.2378 0.8129
vn 0.9413 -0.1972 0.2741
vn 0.7325 -0.0918 0.6745
vn 0.9376 -0.1971 0.2864
vn 0.6127 -0.0862 0.7856
vn 0.9758 -0.2184 0.0056
vn 0.5521 -0.2881 0.7824
vn 0.8452 -0.3415 0.4112
vn 0.8361 -0.2028 0.5097
vn 0.9813 0.1162 -0.1535
vn 0.9003 0.0726 -0.4293
vn 0.8991 0.0678 -0.4324
vn 0.3935 -0.0312 -0.9188
vn 0.9983 0.0472 -0.0345
vn 0.2510 0.0028 -0.9680
vn 0.7553 0.0212 -0.6551
vn 0.9986 0.0146 -0.0506
vn -0.0503 -0.0002 -0.9987
vn -0.0674 0.0045 -0.9977
vn 0.8751 0.0053 -0.4839
vn 0.2763 0.0066 -0.9610
vn 0.9999 -0.0082 -0.0101
vn 0.8366 -0.0442 -0.5461
vn 0.5164 -0.0427 -0.8553
vn -0.0167 0.0238 -0.9996
vn 0.9968 -0.0798 0.0030
vn 0.9973 -0.0729 -0.0093
vn 0.9756 -0.0917 -0.1994
vn 0.5146 -0.0527 -0.8558
vn -0.0069 -0.2224 -0.9749
vn -0.0621 -0.3846 -0.9210
vn 0.4903 -0.0317 -0.8710
vn 0.9682 -0.1156 -0.2219
vn 0.9250 -0.1224 -0.3597
vn -0.0409 0.0190 -0.9990
vn 0.3719 -0.0231 -0.9280
vn 0.2691 -0.0320 -0.9626
vn 0.2697 0.0240 -0.9627
vn 0.9176 -0.1432 -0.3708
vn 0.6368 -0.1234 -0.7611
vn 0.4085 -0.0519 -0.9113
vn 0.9810 -0.1937 -0.0071
vn -0.1112 -0.4471 -0.8875
vn 0.9538 -0.1797 -0.2409
vn 0.6501 -0.0824 -0.7554
vn 0.4936 -0.0572 -0.8678
vn 0.8955 -0.1926 -0.4012
vn 0.3832 -0.0665 -0.9213
vn 0.8973 -0.2400 -0.3704
vn 0.8833 -0.2201 -0.4139
vn -0.3946 -0.0189 0.9187
vn 0.0309 -0.3222 0.9462
vn 0.2511 0.0329 0.9674
vn -0.4032 -0.0797 0.9116
vn -0.0195 -0.0137 0.9997
vn -0.2514 -0.1084 0.9618
vn -0.0031 -0.0035 1.0000
vn -0.2510 -0.0177 0.9678
vn -0.0199 0.2226 0.9747
vn -0.0291 0.1424 0.9894
vn -0.0591 0.1371 0.9888
vn -0.0277 -0.0095 0.9996
vn 0.2473 0.0301 0.9685
vn 0.0079 -0.0067 0.9999
vn -0.9025 -0.0526 0.4275
vn -0.9963 -0.0864 -0.0010
vn -0.9963 -0.0857 -0.0016
vn 0.1536 -0.0105 0.9881
vn -0.3711 -0.0669 0.9262
vn -0.0164 -0.0128 0.9998
vn -0.0109 0.0042 0.9999
vn -0.1379 0.0052 0.9904
vn -0.3806 -0.0524 0.9232
vn 0.4274 0.0241 0.9038
vn 0.3578 0.0433 0.9328
vn -0.0914 -0.0111 0.9958
vn 0.4782 0.0091 0.8782
vn 0.0094 0.0011 1.0000
vn -0.5545 -0.0259 0.8318
vn 0.0444 -0.0015 0.9990
vn -0.7357 -0.0649 0.6741
vn -0.9994 -0.0342 0.0067
vn -0.0023 -0.0004 1.0000
vn -0.2909 -0.0158 0.9566
vn -0.0230 -0.0057 0.9997
vn -0.0525 -0.0034 0.9986
vn -0.6617 -0.0109 0.7497
vn -0.9998 -0.0172 -0.0035
vn -0.3911 -0.0640 0.9181
vn -0.0045 0.0063 1.0000
vn -0.0015 0.0019 1.0000
vn -0.2855 0.0622 0.9564
vn -0.2964 -0.0576 0.9533
vn -0.0256 -0.0042 0.9997
vn -0.3310 0.0194 0.9434
vn 0.0562 -0.0022 0.9984
vn -0.3547 -0.0258 0.9346
vn -0.0015 0.0062 1.0000
vn -0.0049 0.0063 1.0000
vn -0.0001 0.0021 1.0000
vn -0.3590 0.0565 0.9316
vn 0.2303 -0.0290 0.9727
vn 0.2545 -0.0359 0.9664
vn 0.3373 -0.0617 0.9394
vn 0.0020 0.0009 1.0000
vn -0.7946 0.0515 0.6049
vn -0.7101 0.0362 0.7032
vn -0.9466 0.0200 0.3217
vn -0.9995 0.0300 0.0054
vn -0.9985 0.0546 -0.0039
vn -0.4124 -0.0200 0.9108
vn 0.3757 0.0406 0.9258
vn -0.0032 0.0029 1.0000
vn -0.4487 0.0755 0.8905
vn 0.0087 -0.0080 0.9999
vn 0.0097 0.0041 0.9999
vn -0.1339 0.0099 0.9909
vn -0.4536 0.0596 0.8892
vn 0.2654 0.0099 0.9641
vn -0.0210 0.0195 0.9996
vn -0.0029 -0.0470 0.9989
vn -0.3621 0.0586 0.9303
vn 0.2592 -0.0468 0.9647
vn -0.0058 0.0098 0.9999
vn -0.0469 -0.0005 0.9989
vn -0.9459 0.1026 0.3079
vn -0.9962 0.0875 -0.0002
vn -0.4311 0.0477 0.9011
vn -0.0046 0.0146 0.9999
vn 0.0219 -0.0414 0.9989
vn 0.0050 0.0071 1.0000
vn -0.0195 0.0065 0.9998
vn 0.0129 -0.0018 0.9999
vn 0.0234 -0.0025 0.9997
vn -0.4330 0.0780 0.8980
vn -0.0216 0.0077 0.9997
vn -0.8297 0.0672 0.5542
vn -0.5810 0.0383 0.8130
vn -0.0013 0.0083 1.0000
vn -0.2407 0.0310 0.9701
vn -0.2738 0.0100 0.9617
vn 0.3468 -0.0437 0.9369
vn 0.3028 -0.0478 0.9519
vn -0.4733 0.1059 0.8745
vn -0.0120 0.0181 0.9998
vn -0.9911 0.1329 -0.0000
vn -0.1482 0.0280 0.9886
vn 0.4819 -0.0418 0.8752
vn 0.0045 0.0083 1.0000
vn -0.3579 0.0586 0.9319
vn 0.0004 0.0110 0.9999
vn -0.4050 0.1062 0.9081
vn 0.0316 0.0204 0.9993
vn 0.3463 -0.0427 0.9372
vn 0.0095 0.0073 0.9999
vn -0.0884 0.0298 0.9956
vn -0.7995 0.1225 0.5881
vn -0.4497 0.0750 0.8900
vn -0.8705 0.1157 0.4784
vn -0.0054 0.0132 0.9999
vn 0.0080 0.0017 1.0000
vn -0.2227 0.0565 0.9732
vn -0.4749 0.0553 0.8783
vn -0.0756 0.0161 0.9970
vn -0.3268 0.0753 0.9421
vn 0.0057 0.0178 0.9998
vn -0.0018 0.0070 1.0000
vn -0.4393 0.0723 0.8954
vn -0.9904 0.1379 0.0025
vn -0.9887 0.1498 0.0013
vn -0.5215 0.1059 0.8467
vn 0.4166 -0.0481 0.9078
vn -0.0471 0.0197 0.9987
vn 0.0274 0.0275 0.9992
vn -0.0649 0.0189 0.9977
vn 0.3135 -0.0569 0.9479
vn -0.0007 0.0228 0.9997
vn -0.4004 0.1113 0.9095
vn 0.2908 -0.0416 0.9559
vn -0.7936 0.1699 0.5843
vn -0.5323 0.1126 0.8391
vn -0.0036 0.0155 0.9999
vn 0.3673 -0.0521 0.9286
vn -0.4081 0.0802 0.9094
vn -0.0039 -0.0018 1.0000
vn 0.0013 0.0262 0.9997
vn -0.4841 0.1354 0.8645
vn -0.0167 0.0129 0.9998
vn -0.0069 0.0216 0.9997
vn 0.0286 0.0240 0.9993
vn -0.3625 0.0987 0.9267
vn 0.0115 0.0489 0.9987
vn 0.0129 0.0361 0.9993
vn -0.0942 0.0336 0.9950
vn -0.5058 0.1122 0.8553
vn 0.3950 -0.0686 0.9161
vn 0.4583 -0.0972 0.8834
vn 0.0111 -0.0085 0.9999
vn 0.4253 -0.0494 0.9037
vn -0.5262 0.1213 0.8416
vn 0.3447 -0.0587 0.9369
vn 0.0041 0.0488 0.9988
vn 0.3707 -0.0723 0.9259
vn -0.0953 0.0279 0.9951
vn -0.0248 0.0189 0.9995
vn -0.8281 0.1842 0.5294
vn -0.3575 0.0833 0.9302
vn -0.9876 0.1567 -0.0071
vn -0.9820 0.1886 -0.0027
vn -0.9819 0.1885 0.0181
vn -0.0270 -0.2615 0.9648
vn -0.0398 -0.3431 0.9384
vn -0.0418 0.0119 0.9991
vn 0.0657 0.0081 0.9978
vn -0.4303 0.1542 0.8894
vn -0.4152 0.2844 0.8641
vn 0.0662 0.0416 0.9969
vn 0.0027 0.0273 0.9996
vn -0.4649 0.1229 0.8768
vn -0.0053 0.0229 0.9997
vn 0.0052 0.0287 0.9996
vn -0.5179 0.1212 0.8468
vn 0.3476 -0.0320 0.9371
vn 0.4429 -0.0826 0.8928
vn -0.4747 0.1657 0.8644
vn -0.0058 0.0463 0.9989
vn 0.4184 -0.0724 0.9053
vn -0.0089 0.0388 0.9992
vn -0.5066 0.1556 0.8480
vn -0.8630 0.1836 0.4707
vn -0.9729 0.2269 -0.0438
vn -0.9750 0.2167 -0.0487
vn -0.0364 -0.3744 0.9266
vn 0.1757 0.1964 0.9647
vn 0.1370 0.3617 0.9222
vn 0.1393 0.1159 0.9834
vn 0.1427 0.1269 0.9816
vn -0.1305 0.1530 0.9796
vn -0.6136 0.1999 0.7639
vn 0.0671 0.0132 0.9977
vn -0.9601 0.2125 0.1816
vn 0.4216 -0.1144 0.8996
vn 0.3634 -0.0710 0.9289
vn -0.4531 0.1222 0.8830
vn 0.4584 -0.0729 0.8857
vn 0.0422 0.0202 0.9989
vn 0.0045 0.0315 0.9995
vn -0.5374 0.1790 0.8241
vn 0.0419 0.0172 0.9990
vn 0.0342 0.0374 0.9987
vn -0.4924 0.1872 0.8500
vn -0.4954 0.1626 0.8533
vn -0.0064 0.0316 0.9995
vn -0.4708 0.1662 0.8664
vn 0.0249 0.0688 0.9973
vn -0.1058 0.1106 0.9882
vn -0.5598 0.1455 0.8158
vn -0.6384 0.1105 0.7617
vn 0.0384 0.0138 0.9992
vn 0.3690 -0.0697 0.9268
vn 0.4835 -0.0746 0.8721
vn 0.0213 0.0350 0.9992
vn -0.4679 0.1351 0.8734
vn 0.4469 -0.1024 0.8887
vn 0.0164 0.0359 0.9992
vn 0.4618 -0.1008 0.8812
vn -0.0071 0.0402 0.9992
vn -0.5128 0.1891 0.8374
vn 0.0468 0.0476 0.9978
vn -0.5197 0.1876 0.8335
vn 0.0050 0.0483 0.9988
vn 0.4183 -0.0699 0.9056
vn 0.3417 -0.0687 0.9373
vn -0.3457 0.1113 0.9317
vn -0.6787 0.1936 0.7084
vn -0.9432 0.2596 0.2072
vn -0.0643 -0.5204 0.8515
vn -0.1315 -0.5223 0.8426
vn -0.4715 -0.4052 0.7833
vn -0.0719 -0.5316 0.8439
vn -0.1003 0.1997 0.9747
vn 0.0377 0.0008 0.9993
vn 0.0155 0.0100 0.9998
vn -0.4547 0.1205 0.8824
vn 0.0199 0.0162 0.9997
vn 0.5120 -0.1331 0.8486
vn 0.0118 0.0159 0.9998
vn -0.5145 0.1701 0.8404
vn -0.5216 0.1642 0.8373
vn -0.0081 -0.0011 1.0000
vn 0.3784 -0.0913 0.9211
vn -0.0024 0.0343 0.9994
vn 0.0180 0.0388 0.9991
vn -0.9670 0.2531 0.0302
vn -0.9662 0.2574 0.0117
vn 0.3159 0.0016 0.9488
vn 0.0850 0.0870 0.9926
vn 0.0834 0.0858 0.9928
vn -0.5591 0.1973 0.8053
vn 0.4084 -0.0933 0.9080
vn 0.0307 0.0003 0.9995
vn -0.4644 0.1255 0.8767
vn 0.0476 0.0155 0.9987
vn -0.0333 0.0060 0.9994
vn 0.5070 -0.1114 0.8547
vn -0.0257 0.0030 0.9997
vn -0.5075 0.1371 0.8507
vn 0.0006 0.0162 0.9999
vn -0.5164 0.1593 0.8414
vn -0.0047 0.0053 1.0000
vn -0.0590 0.0254 0.9979
vn 0.1018 0.0039 0.9948
vn -0.4294 0.1652 0.8879
vn -0.2988 0.1195 0.9468
vn -0.1467 0.0464 0.9881
vn -0.8541 0.2725 0.4430
vn -0.6833 0.1963 0.7032
vn -0.4700 0.2236 0.8539
vn -0.8705 0.2838 0.4021
vn -0.9565 0.2808 -0.0784
vn 0.8235 -0.2042 0.5293
vn 0.5757 -0.1498 0.8038
vn 0.6522 -0.1230 0.7480
vn 0.9605 -0.2784 -0.0038
vn 0.0571 0.0272 0.9980
vn 0.1249 -0.0285 0.9918
vn 0.2293 0.4900 0.8410
vn 0.0543 0.0353 0.9979
vn -0.5210 0.1488 0.8405
vn -0.0243 0.0226 0.9994
vn 0.0240 0.0043 0.9997
vn -0.5208 0.1488 0.8406
vn 0.0142 0.0091 0.9999
vn -0.0200 0.0070 0.9998
vn 0.5074 -0.1113 0.8545
vn 0.4035 -0.1059 0.9088
vn 0.0042 0.0062 1.0000
vn -0.5049 0.1473 0.8505
vn 0.4428 -0.1305 0.8870
vn 0.6878 0.7045 0.1749
vn -0.0075 -0.0462 0.9989
vn 0.1056 0.0126 0.9943
vn 0.0170 0.9853 0.1701
vn 0.1164 0.9850 0.1270
vn 0.4912 0.8698 0.0464
vn -0.1372 0.8037 0.5791
vn -0.1590 0.7855 0.5981
vn 0.5942 0.5370 0.5987
vn -0.7327 0.6805 0.0068
vn -0.9569 0.2743 -0.0958
vn -0.9619 0.2732 -0.0140
vn 0.8779 -0.2494 0.4087
vn 0.9623 -0.2719 -0.0004
vn 0.4322 -0.0506 0.9004
vn 0.2482 0.0618 0.9667
vn -0.4521 -0.0908 0.8873
vn -0.0692 0.0758 0.9947
vn -0.0374 0.0563 0.9977
vn -0.4451 0.0959 0.8903
vn -0.0124 -0.0012 0.9999
vn 0.4073 -0.0935 0.9085
vn -0.0330 0.0132 0.9994
vn -0.4659 0.1248 0.8760
vn -0.0215 0.0128 0.9997
vn -0.0006 0.0005 1.0000
vn -0.3755 0.1250 0.9184
vn 0.0218 -0.0085 0.9997
vn 0.0333 -0.0027 0.9994
vn -0.0010 -0.0012 1.0000
vn 0.0408 0.0296 0.9987
vn -0.4026 0.1272 0.9065
vn 0.9988 -0.0018 0.0482
vn 0.9460 -0.1763 0.2721
vn 0.8880 -0.2968 0.3512
vn 0.0758 -0.0679 0.9948
vn -0.8476 0.1579 0.5066
vn 0.5488 0.0372 0.8351
vn 0.1676 -0.2066 0.9640
vn -0.6222 -0.0081 0.7828
vn -0.2576 -0.0673 0.9639
vn 0.2911 -0.2916 0.9112
vn -0.9438 0.3251 0.0600
vn -0.9241 0.3821 -0.0058
vn -0.9116 0.4104 0.0214
vn -0.9479 0.3173 -0.0282
vn -0.9036 0.4153 -0.1047
vn 0.6631 -0.1350 0.7363
vn 0.9123 -0.2435 0.3292
vn 0.9698 -0.2440 -0.0037
vn 0.9696 -0.2446 -0.0033
vn 0.1372 -0.0320 0.9900
vn 0.2581 0.0085 0.9661
vn 0.5113 -0.1159 0.8515
vn -0.2049 0.0264 0.9784
vn -0.0377 -0.0529 0.9979
vn -0.0911 -0.0808 0.9926
vn -0.4506 0.0629 0.8905
vn 0.4166 -0.0987 0.9037
vn -0.0578 -0.0049 0.9983
vn 0.3638 -0.1553 0.9184
vn -0.0317 -0.0018 0.9995
vn -0.2861 0.1229 0.9503
vn 0.4156 -0.1073 0.9032
vn 0.0253 -0.0020 0.9997
vn 0.0369 0.0377 0.9986
vn 0.4431 -0.1057 0.8902
vn -0.1545 -0.4490 0.8801
vn -0.1988 -0.8704 0.4505
vn -0.0038 0.1528 0.9883
vn -0.0105 0.1483 0.9889
vn -0.1542 -0.4493 0.8800
vn -0.2151 -0.7850 0.5809
vn -0.1758 -0.8549 0.4880
vn 0.8898 -0.3197 0.3257
vn -0.1423 -0.2907 0.9462
vn -0.0921 -0.6529 0.7518
vn 0.0093 -0.2629 0.9648
vn -0.6063 0.0381 0.7943
vn 0.2823 -0.3205 0.9042
vn 0.7759 -0.6039 0.1828
vn 0.9361 -0.2950 0.1915
vn 0.2300 -0.1265 0.9649
vn -0.9479 0.2074 0.2420
vn -0.9241 0.2873 0.2521
vn -0.7545 0.0328 0.6555
vn -0.9783 0.1872 0.0891
vn -0.9481 0.3008 -0.1032
vn -0.9940 -0.0198 0.1078
vn -0.9976 -0.0505 -0.0477
vn -0.9995 0.0309 0.0023
vn -0.9034 0.4287 0.0040
vn -0.9447 0.3273 -0.0209
vn -0.9913 -0.1276 0.0320
vn 0.3993 -0.2309 0.8873
vn 0.8998 -0.2692 0.3433
vn -0.1776 0.0332 0.9835
vn -0.1344 0.0552 0.9894
vn -0.1106 -0.0062 0.9938
vn -0.1896 0.2831 0.9402
vn 0.5307 -0.0407 0.8466
vn 0.0217 0.0251 0.9994
vn -0.0314 0.0139 0.9994
vn -0.7642 0.3027 0.5696
vn -0.2701 0.0534 0.9614
vn 0.2194 -0.0508 0.9743
vn -0.1176 -0.7810 0.6133
vn -0.2446 -0.6987 0.6723
vn -0.1106 -0.8778 0.4660
vn -0.2224 -0.6306 0.7435
vn -0.2374 -0.6424 0.7287
vn -0.0960 -0.2117 0.9726
vn -0.0762 -0.9070 0.4143
vn -0.0285 -0.1206 0.9923
vn -0.0033 -0.1312 0.9914
vn -0.0564 -0.2103 0.9760
vn -0.1771 -0.5798 0.7953
vn -0.1846 -0.7586 0.6249
vn -0.1015 -0.7766 0.6218
vn 0.0467 -0.3756 0.9256
vn -0.1561 -0.7576 0.6338
vn 0.8127 -0.4764 0.3355
vn 0.5335 -0.8114 0.2388
vn 0.0026 -0.9622 0.2724
vn 0.0356 -0.6841 0.7285
vn -0.1882 -0.9737 0.1283
vn -0.1832 -0.9717 0.1488
vn -0.1955 -0.9716 0.1335
vn -0.2033 -0.9791 -0.0001
vn -0.1621 -0.9867 0.0133
vn -0.8009 -0.3187 0.5070
vn -0.8826 -0.3434 0.3210
vn -0.5207 -0.8492 0.0884
vn -0.9600 -0.2795 -0.0175
vn -0.9954 0.0945 0.0158
vn -0.6714 -0.7409 0.0134
vn -0.7213 -0.6926 0.0107
vn 0.2693 0.8138 0.5149
vn 0.5361 0.7715 0.3426
vn 0.2885 -0.1072 0.9514
vn 0.6674 -0.1766 0.7234
vn 0.9027 -0.2908 0.3170
vn 0.7578 -0.3170 0.5703
vn 0.4780 0.1931 0.8569
vn 0.6413 0.7592 0.1111
vn 0.9326 -0.3590 0.0369
vn 0.9595 -0.2818 -0.0053
vn -0.0555 0.3652 0.9293
vn -0.2239 0.2194 0.9496
vn -0.4399 0.3439 0.8296
vn 0.0415 0.4888 0.8714
vn -0.1054 -0.2454 0.9637
vn 0.0227 0.1866 0.9822
vn -0.2875 0.3843 0.8773
vn -0.0664 0.4152 0.9073
vn 0.1639 0.2982 0.9403
vn 0.1122 0.4281 0.8967
vn -0.1242 -0.4086 0.9042
vn -0.1555 -0.3564 0.9213
vn -0.2351 -0.8891 0.3926
vn -0.1135 -0.4030 0.9081
vn -0.2584 -0.7483 0.6109
vn -0.2150 -0.9068 0.3627
vn -0.2982 -0.7228 0.6234
vn -0.0557 -0.2071 0.9767
vn -0.1352 -0.6397 0.7566
vn -0.0305 -0.2137 0.9764
vn -0.0322 -0.1993 0.9794
vn -0.1562 -0.5976 0.7865
vn -0.2457 -0.8983 0.3643
vn -0.2650 -0.9642 0.0057
vn -0.1537 -0.5668 0.8094
vn -0.2597 -0.9657 0.0020
vn -0.2408 -0.8948 0.3761
vn -0.2684 -0.9514 0.1507
vn -0.2509 -0.9680 0.0073
vn 0.6168 -0.0644 0.7845
vn 0.3071 -0.2077 0.9287
vn 0.1426 -0.4324 0.8903
vn 0.3553 -0.5624 0.7466
vn 0.8275 0.5570 -0.0714
vn 0.9281 -0.3606 0.0926
vn 0.8993 -0.4307 0.0766
vn 0.8982 -0.4174 0.1383
vn 0.8510 0.5251 0.0065
vn 0.8438 0.5367 0.0045
vn 0.9732 0.2298 -0.0051
vn 0.9236 -0.3835 -0.0009
vn -0.2259 -0.3408 0.9126
vn -0.2954 -0.3668 0.8821
vn -0.6106 -0.5494 0.5704
vn -0.2447 -0.8906 0.3835
vn -0.3894 -0.6842 0.6166
vn -0.2540 -0.2416 0.9365
vn -0.0284 -0.1266 0.9915
vn -0.0769 -0.1886 0.9790
vn -0.1860 -0.7556 0.6281
vn -0.3399 -0.9311 0.1323
vn -0.2764 -0.9610 0.0110
vn -0.1765 -0.6028 0.7781
vn -0.2348 -0.9163 0.3246
vn -0.2373 -0.9191 0.3146
vn -0.2714 -0.9625 0.0040
vn 0.6760 -0.5751 0.4608
vn 0.3843 -0.6305 0.6744
vn 0.4711 -0.8783 0.0808
vn 0.6090 -0.7932 -0.0048
vn 0.9128 -0.4083 -0.0113
vn -0.8093 -0.1453 0.5691
vn -0.1254 -0.7829 0.6094
vn -0.2169 -0.9047 0.3667
vn -0.0528 -0.9861 0.1576
vn -0.2432 -0.9700 -0.0007
vn -0.5917 -0.0668 0.8034
vn -0.6672 -0.3561 0.6542
vn -0.3363 -0.8789 0.3384
vn -0.3580 -0.8916 0.2773
vn -0.3261 -0.9453 0.0035
vn -0.3075 -0.9514 0.0158
vn -0.2077 -0.5819 0.7863
vn -0.3092 -0.9397 0.1462
vn -0.2346 -0.9003 -0.3667
vn -0.2281 -0.1013 -0.9684
vn -0.1014 -0.0454 -0.9938
vn -0.0121 -0.0429 -0.9990
vn 0.3383 0.0201 -0.9408
vn -0.1655 -0.8659 -0.4721
vn 0.1275 -0.3313 -0.9349
vn 0.1710 -0.0121 -0.9852
vn -0.6371 -0.0788 -0.7667
vn -0.0183 -0.0031 -0.9998
vn 0.2117 0.0229 -0.9771
vn -0.0624 -0.0052 -0.9980
vn 0.0270 -0.0093 -0.9996
vn -0.0870 -0.0015 -0.9962
vn -0.6979 -0.0838 -0.7113
vn -0.8894 -0.0404 -0.4553
vn -0.5245 -0.0418 -0.8504
vn 0.3947 0.0414 -0.9179
vn 0.0496 -0.0087 -0.9987
vn -0.0132 0.0022 -0.9999
vn 0.1106 -0.0057 -0.9938
vn -0.2269 -0.0123 -0.9738
vn 0.4883 0.0211 -0.8724
vn -0.5086 -0.0625 -0.8587
vn 0.0275 -0.0033 -0.9996
vn 0.2866 0.0223 -0.9578
vn -0.0213 -0.0346 -0.9992
vn -0.0369 -0.0468 -0.9982
vn 0.3968 0.0423 -0.9169
vn -0.0910 0.0016 -0.9959
vn -0.2913 0.0096 -0.9566
vn 0.0072 -0.0020 -1.0000
vn -0.9118 -0.0592 -0.4064
vn -0.6161 -0.1099 -0.7800
vn 0.0467 0.0001 -0.9989
vn -0.1883 -0.0007 -0.9821
vn -0.0107 -0.0085 -0.9999
vn -0.2069 -0.0385 -0.9776
vn -0.9780 0.0039 -0.2087
vn -0.4172 -0.0423 -0.9078
vn -0.0179 -0.0031 -0.9998
vn 0.3096 -0.0426 -0.9499
vn -0.4327 -0.0019 -0.9015
vn -0.4923 -0.0334 -0.8698
vn -0.4599 -0.0363 -0.8872
vn 0.0022 -0.0035 -1.0000
vn -0.0065 -0.0061 -1.0000
vn -0.2624 0.0444 -0.9639
vn 0.0111 -0.0207 -0.9997
vn 0.1704 -0.0176 -0.9852
vn 0.0038 0.0013 -1.0000
vn -0.9658 0.0188 -0.2587
vn 0.4058 0.0365 -0.9132
vn -0.0055 -0.0015 -1.0000
vn -0.0167 0.0068 -0.9998
vn 0.0028 -0.0142 -0.9999
vn 0.4453 -0.0844 -0.8914
vn -0.0302 -0.0080 -0.9995
vn -0.5710 0.0909 -0.8159
vn 0.3161 -0.0635 -0.9466
vn -0.9848 0.0859 -0.1508
vn -0.6273 0.0626 -0.7763
vn -0.4288 0.0331 -0.9028
vn -0.3864 -0.0002 -0.9223
vn 0.1016 0.0269 -0.9945
vn 0.2145 0.0057 -0.9767
vn -0.0095 -0.1023 -0.9947
vn -0.0086 -0.0016 -1.0000
vn 0.0390 -0.0162 -0.9991
vn 0.0044 0.0016 -1.0000
vn -0.7171 0.0585 -0.6945
vn -0.9758 0.0933 -0.1977
vn -0.9955 0.0946 0.0052
vn -0.3944 0.0459 -0.9178
vn 0.4741 -0.0838 -0.8765
vn -0.0392 0.0151 -0.9991
vn 0.3062 -0.0550 -0.9504
vn 0.0146 0.0030 -0.9999
vn -0.4617 0.0478 -0.8858
vn -0.0047 0.0013 -1.0000
vn -0.1821 -0.0252 -0.9830
vn -0.4343 0.1073 -0.8943
vn -0.5325 0.1161 -0.8384
vn -0.0335 0.0194 -0.9993
vn 0.3168 -0.0545 -0.9469
vn -0.6838 0.0034 -0.7296
vn -0.1713 0.0103 -0.9852
vn 0.2894 -0.0344 -0.9566
vn 0.4810 -0.0427 -0.8757
vn 0.0055 0.0004 -1.0000
vn -0.0088 -0.0017 -1.0000
vn -0.4125 0.0147 -0.9108
vn 0.4216 -0.0515 -0.9053
vn -0.0152 0.0080 -0.9999
vn -0.0085 0.0128 -0.9999
vn 0.0301 -0.0049 -0.9995
vn -0.4126 0.0792 -0.9074
vn -0.0234 0.0217 -0.9995
vn -0.0140 0.0129 -0.9998
vn -0.1871 0.0424 -0.9814
vn -0.7420 0.1051 -0.6621
vn -0.7191 0.1055 -0.6868
vn -0.3140 0.0265 -0.9491
vn 0.0034 0.4363 -0.8998
vn 0.0133 0.3468 -0.9378
vn -0.7409 0.2262 -0.6324
vn 0.4221 -0.0479 -0.9053
vn -0.4802 0.1050 -0.8708
vn 0.4709 -0.0781 -0.8787
vn 0.0839 0.0001 -0.9965
vn 0.4672 -0.0780 -0.8807
vn -0.0166 0.0112 -0.9998
vn -0.5325 0.1175 -0.8383
vn 0.3226 -0.0588 -0.9447
vn -0.5338 0.1175 -0.8374
vn -0.9837 0.1541 -0.0930
vn -0.0427 0.0210 -0.9989
vn -0.5908 0.1066 -0.7998
vn -0.4019 0.0905 -0.9112
vn -0.0289 0.0190 -0.9994
vn -0.0060 0.0115 -0.9999
vn -0.0124 0.0148 -0.9998
vn -0.9841 0.1762 0.0246
vn -0.9029 0.1544 -0.4013
vn 0.3599 -0.0549 -0.9314
vn -0.5532 0.1449 -0.8203
vn -0.0240 0.0484 -0.9985
vn -0.5741 0.1559 -0.8038
vn -0.0261 0.0308 -0.9992
vn -0.4808 0.0918 -0.8720
vn 0.4059 -0.0424 -0.9129
vn 0.0655 0.0185 -0.9977
vn -0.4260 0.1131 -0.8976
vn 0.0167 0.0146 -0.9998
vn 0.3806 -0.0610 -0.9227
vn 0.0199 0.0187 -0.9996
vn -0.1909 0.0440 -0.9806
vn -0.6462 0.1459 -0.7491
vn -0.0165 0.0459 -0.9988
vn 0.0084 0.0484 -0.9988
vn 0.4422 -0.0628 -0.8947
vn -0.0213 0.0320 -0.9993
vn 0.5214 -0.0355 -0.8526
vn -0.0165 0.0568 -0.9982
vn -0.0281 0.0503 -0.9983
vn 0.0524 0.0181 -0.9985
vn 0.4684 -0.0906 -0.8789
vn -0.0142 0.0123 -0.9998
vn -0.0338 0.0741 -0.9967
vn 0.0860 0.0372 -0.9956
vn -0.0269 0.0601 -0.9978
vn -0.1349 -0.4107 -0.9017
vn -0.1874 -0.4897 -0.8515
vn -0.1704 0.0633 -0.9833
vn 0.0240 0.0068 -0.9997
vn -0.7205 -0.0130 -0.6933
vn -0.0198 0.0450 -0.9988
vn 0.0794 0.0067 -0.9968
vn 0.5469 -0.0913 -0.8322
vn -0.0079 0.0284 -0.9996
vn 0.0057 0.0166 -0.9998
vn -0.4784 0.1349 -0.8677
vn 0.1521 -0.0004 -0.9884
vn 0.4884 -0.0924 -0.8677
vn -0.5305 0.1761 -0.8292
vn -0.0090 0.0515 -0.9986
vn 0.3774 -0.0541 -0.9245
vn 0.4711 -0.0665 -0.8796
vn 0.0301 0.0345 -0.9990
vn 0.0872 0.0364 -0.9955
vn -0.4330 0.1229 -0.8930
vn -0.0341 0.0655 -0.9973
vn -0.8292 0.2212 -0.5133
vn -0.9138 0.2295 -0.3350
vn -0.0295 0.3199 -0.9470
vn 0.0381 0.3511 -0.9356
vn 0.0144 0.4828 -0.8756
vn -0.7580 0.5016 -0.4169
vn -0.7202 0.2445 -0.6493
vn -0.0332 0.0972 -0.9947
vn 0.0102 0.0048 -0.9999
vn -0.4153 0.1065 -0.9034
vn 0.4859 -0.0881 -0.8695
vn 0.1210 0.0100 -0.9926
vn -0.0008 0.0228 -0.9997
vn -0.0633 0.0591 -0.9962
vn -0.5427 0.1809 -0.8202
vn -0.0102 0.0212 -0.9997
vn -0.9244 0.2271 -0.3065
vn 0.0250 0.0071 -0.9997
vn -0.0119 0.0545 -0.9984
vn 0.1048 -0.0030 -0.9945
vn 0.4449 -0.0855 -0.8915
vn 0.5097 -0.0897 -0.8557
vn -0.8049 0.2121 -0.5542
vn -0.4824 0.1448 -0.8639
vn 0.1194 0.0123 -0.9928
vn 0.4872 -0.0782 -0.8698
vn -0.0138 0.0361 -0.9993
vn -0.0006 0.0393 -0.9992
vn -0.4198 0.1588 -0.8936
vn -0.5836 0.1757 -0.7928
vn 0.5149 -0.1161 -0.8494
vn -0.0203 0.0560 -0.9982
vn -0.9717 0.2314 0.0472
vn -0.1061 -0.4812 -0.8702
vn 0.4237 -0.2333 -0.8753
vn -0.1627 -0.3024 -0.9392
vn 0.0326 -0.4190 -0.9074
vn -0.2012 -0.5648 -0.8003
vn -0.1551 -0.2908 -0.9441
vn -0.3604 -0.3577 -0.8615
vn -0.4485 -0.3218 -0.8338
vn -0.2473 0.2873 -0.9254
vn 0.1054 0.0124 -0.9944
vn 0.5102 -0.0966 -0.8546
vn -0.0233 0.0441 -0.9988
vn 0.4980 -0.0834 -0.8631
vn -0.4692 0.1446 -0.8712
vn 0.0800 0.0214 -0.9966
vn -0.5042 0.2064 -0.8386
vn -0.5064 0.2065 -0.8372
vn 0.0153 0.0608 -0.9980
vn -0.0358 0.0705 -0.9969
vn 0.0374 0.0265 -0.9989
vn -0.5274 0.1885 -0.8284
vn -0.9109 0.2914 -0.2921
vn 0.2059 0.2320 -0.9507
vn 0.2339 0.2372 -0.9429
vn 0.7588 -0.2176 -0.6139
vn 0.0170 0.2202 -0.9753
vn 0.0007 0.3722 -0.9282
vn -0.0720 0.0795 -0.9942
vn -0.6202 0.2068 -0.7567
vn -0.0223 0.0427 -0.9988
vn 0.5879 -0.0999 -0.8028
vn -0.0296 0.0709 -0.9970
vn 0.0933 0.0125 -0.9956
vn 0.0679 0.0412 -0.9968
vn -0.0015 0.0354 -0.9994
vn 0.4648 -0.0974 -0.8801
vn -0.0328 0.0579 -0.9978
vn 0.0429 0.0179 -0.9989
vn -0.1837 0.0597 -0.9812
vn -0.9521 0.2823 0.1178
vn -0.5219 0.1895 -0.8317
vn -0.6250 0.2737 -0.7311
vn -0.9160 0.2949 -0.2720
vn 0.8214 -0.1781 -0.5418
vn 0.0477 -0.0949 -0.9943
vn -0.6836 0.2416 -0.6887
vn -0.0855 0.2121 -0.9735
vn 0.0035 0.0689 -0.9976
vn -0.4868 0.1970 -0.8510
vn -0.5437 0.2048 -0.8139
vn -0.4327 0.1542 -0.8882
vn 0.5197 -0.1161 -0.8465
vn 0.4582 -0.0869 -0.8846
vn 0.0207 0.0409 -0.9989
vn 0.1299 0.0328 -0.9910
vn -0.5000 0.1960 -0.8436
vn -0.3034 0.1772 -0.9362
vn 0.0531 0.0221 -0.9983
vn 0.0721 0.0490 -0.9962
vn 0.7898 0.5101 -0.3407
vn 0.7591 0.5894 -0.2763
vn -0.1598 0.9241 -0.3473
vn -0.8038 0.5903 -0.0739
vn 0.3666 0.9022 -0.2273
vn -0.1833 0.9258 -0.3306
vn -0.4780 0.3876 -0.7882
vn 0.1135 0.0455 -0.9925
vn 0.4256 -0.1095 -0.8983
vn 0.0665 0.0084 -0.9977
vn 0.0028 -0.0891 -0.9960
vn 0.0080 0.3824 -0.9240
vn -0.2642 0.0069 -0.9645
vn -0.1260 -0.1302 -0.9835
vn -0.8138 0.1153 -0.5695
vn -0.4175 0.1380 -0.8981
vn -0.0037 0.0348 -0.9994
vn 0.0083 0.0416 -0.9991
vn 0.5819 -0.1482 -0.7996
vn -0.4651 0.2009 -0.8621
vn 0.0777 0.0556 -0.9954
vn 0.4693 -0.0896 -0.8785
vn -0.0136 0.0459 -0.9989
vn 0.0864 0.0402 -0.9955
vn 0.0454 0.1762 -0.9833
vn -0.0296 0.2611 -0.9649
vn -0.0249 -0.1587 -0.9870
vn 0.8798 -0.2873 -0.3787
vn -0.1665 0.0622 -0.9841
vn -0.9383 0.3240 0.1211
vn -0.7287 0.0754 -0.6807
vn 0.1207 -0.2487 -0.9610
vn 0.3629 -0.3332 -0.8702
vn -0.9438 0.3276 -0.0447
vn -0.9477 0.3124 -0.0658
vn 0.8881 -0.2490 -0.3864
vn -0.1022 0.0333 -0.9942
vn -0.5621 0.2955 -0.7725
vn 0.1239 0.0403 -0.9915
vn 0.5202 -0.0997 -0.8482
vn 0.0204 0.0567 -0.9982
vn -0.0015 0.0492 -0.9988
vn 0.0488 0.0503 -0.9975
vn 0.0112 0.0272 -0.9996
vn 0.3351 -0.0630 -0.9401
vn -0.3985 0.1821 -0.8989
vn -0.0369 -0.0118 -0.9992
vn -0.1969 0.0171 -0.9803
vn 0.2342 -0.0924 -0.9678
vn 0.3808 -0.0827 -0.9210
vn -0.0374 0.0687 -0.9969
vn 0.1122 0.0217 -0.9934
vn -0.1152 -0.3177 -0.9412
vn -0.0912 0.0178 -0.9957
vn -0.1219 0.1026 -0.9872
vn -0.1468 -0.2303 -0.9620
vn -0.2446 -0.7279 -0.6406
vn -0.1805 -0.8436 -0.5057
vn 0.7957 -0.2066 -0.5694
vn -0.2487 -0.7292 -0.6375
vn -0.0125 -0.3732 -0.9277
vn 0.8020 -0.5322 -0.2713
vn 0.7350 -0.4784 -0.4805
vn -0.3719 -0.1612 -0.9142
vn -0.3582 -0.2021 -0.9115
vn -0.9075 0.4160 0.0572
vn -0.9547 0.2710 0.1227
vn -0.8981 0.1522 -0.4126
vn -0.9313 -0.0143 -0.3639
vn 0.9615 -0.2747 -0.0078
vn 0.9374 -0.2832 -0.2025
vn 0.4389 -0.1365 -0.8881
vn 0.9043 -0.2352 -0.3562
vn -0.0697 0.0788 -0.9945
vn 0.1038 0.0410 -0.9937
vn 0.6896 -0.1567 -0.7070
vn -0.1308 0.0719 -0.9888
vn 0.0476 0.4099 -0.9109
vn 0.2886 0.0174 -0.9573
vn 0.1585 0.4305 -0.8886
vn 0.0069 0.0168 -0.9998
vn -0.4569 0.1571 -0.8755
vn -0.3505 0.1060 -0.9305
vn 0.1742 -0.0444 -0.9837
vn 0.1017 -0.0077 -0.9948
vn 0.3671 -0.0835 -0.9264
vn -0.0974 -0.4794 -0.8722
vn -0.1971 -0.7618 -0.6171
vn -0.1989 -0.7345 -0.6488
vn -0.2394 -0.5052 -0.8291
vn -0.1795 -0.6780 -0.7128
vn -0.2852 -0.6887 -0.6666
vn 0.0134 -0.8035 -0.5952
vn 0.1467 -0.8200 -0.5533
vn -0.0429 -0.1904 -0.9808
vn -0.0697 -0.2247 -0.9719
vn -0.2154 -0.8574 -0.4673
vn -0.2228 -0.8447 -0.4866
vn -0.0617 -0.2412 -0.9685
vn -0.0640 -0.2520 -0.9656
vn -0.0685 -0.2412 -0.9681
vn -0.1557 -0.7011 -0.6958
vn -0.2869 -0.9303 -0.2286
vn -0.2052 -0.8990 -0.3870
vn 0.0146 -0.2852 -0.9583
vn -0.0049 -0.2421 -0.9702
vn -0.2205 -0.8808 -0.4190
vn 0.4911 -0.5011 -0.7125
vn 0.6562 -0.2578 -0.7092
vn 0.2164 -0.6084 -0.7636
vn 0.3120 -0.8833 -0.3500
vn -0.1019 -0.9272 -0.3604
vn -0.1063 -0.9073 -0.4069
vn 0.2485 -0.8375 -0.4866
vn -0.9989 -0.0353 0.0300
vn -0.3161 -0.9487 -0.0099
vn -0.6381 -0.4960 -0.5889
vn -0.8231 -0.3546 -0.4435
vn 0.2803 -0.0433 -0.9589
vn 0.3138 -0.0319 -0.9490
vn 0.5436 0.8271 -0.1432
vn 0.7060 0.7059 -0.0579
vn 0.7498 0.6598 0.0495
vn 0.4699 0.6399 -0.6080
vn 0.2683 0.8141 -0.5149
vn 0.2011 0.4951 -0.8453
vn -0.0916 0.2127 -0.9728
vn 0.0204 0.3865 -0.9221
vn -0.0833 0.4770 -0.8750
vn -0.0903 0.3300 -0.9396
vn -0.2071 0.0880 -0.9743
vn -0.0342 0.0410 -0.9986
vn -0.2098 -0.8469 -0.4885
vn -0.2023 -0.2788 -0.9388
vn 0.1250 0.1894 -0.9739
vn -0.0374 -0.0016 -0.9993
vn -0.2024 -0.8471 -0.4913
vn -0.1449 -0.3934 -0.9079
vn -0.2013 -0.8349 -0.5122
vn -0.2092 -0.8371 -0.5055
vn -0.3174 -0.4096 -0.8553
vn -0.3564 -0.6204 -0.6986
vn -0.1732 -0.6018 -0.7797
vn -0.0604 -0.7986 -0.5989
vn -0.0623 -0.1934 -0.9791
vn -0.0564 -0.2097 -0.9761
vn -0.1975 -0.8265 -0.5271
vn -0.2727 -0.8975 -0.3466
vn -0.0549 -0.2001 -0.9782
vn -0.1674 -0.5735 -0.8019
vn -0.2088 -0.9773 -0.0352
vn -0.2265 -0.7115 -0.6652
vn -0.1610 -0.6551 -0.7382
vn -0.2843 -0.9305 -0.2311
vn 0.8538 0.5202 0.0188
vn 0.9981 0.0609 0.0124
vn 0.9936 -0.0326 -0.1077
vn 0.7920 0.6062 0.0728
vn 0.2980 0.2628 -0.9177
vn 0.9275 0.1102 -0.3573
vn 0.7593 -0.0501 -0.6488
vn 0.5411 -0.5034 -0.6736
vn -0.6837 -0.4907 -0.5402
vn -0.0552 -0.4356 -0.8984
vn -0.2790 -0.0878 -0.9563
vn -0.2871 -0.2486 -0.9251
vn -0.0303 -0.4561 -0.8894
vn -0.2915 -0.7463 -0.5984
vn -0.1638 -0.2076 -0.9644
vn -0.0517 -0.1457 -0.9880
vn -0.2609 -0.9349 -0.2407
vn -0.0415 -0.2615 -0.9643
vn -0.1870 -0.6376 -0.7473
vn -0.1910 -0.6767 -0.7110
vn -0.2482 -0.9314 -0.2663
vn -0.2428 -0.9269 -0.2861
vn -0.0536 -0.2344 -0.9707
vn -0.2044 -0.6556 -0.7269
vn -0.1547 -0.6966 -0.7006
vn -0.2320 -0.7898 -0.5678
vn 0.8662 -0.4854 -0.1186
vn 0.8292 -0.4672 -0.3068
vn 0.1982 -0.9790 -0.0482
vn -0.1558 -0.9873 -0.0311
vn -0.2476 -0.3205 -0.9143
vn 0.2544 -0.8760 -0.4098
vn -0.0932 -0.7727 -0.6278
vn -0.3758 -0.8796 -0.2916
vn -0.3034 -0.9063 -0.2942
vn -0.7062 -0.1885 -0.6824
vn -0.5337 -0.1111 -0.8383
vn -0.6121 -0.4669 -0.6382
vn -0.3085 -0.9212 -0.2370
vn -0.2902 -0.9065 -0.3068
vn -0.1878 -0.4721 -0.8613
s 0
f 3//1 2//1 34//1
f 4//2 77//2 1//2
f 2//3 5//3 7//3
f 7//4 34//4 2//4
f 9//5 1//5 77//5
f 1//6 6//6 10//6
f 7//7 5//7 8//7
f 9//8 6//8 1//8
f 1//9 10//9 5//9
f 5//10 10//10 8//10
f 11//11 7//11 8//11
f 6//12 9//12 12//12
f 11//13 8//13 10//13
f 13//14 10//14 6//14
f 11//15 14//15 7//15
f 13//16 11//16 10//16
f 16//17 11//17 13//17
f 14//18 11//18 16//18
f 12//19 15//19 6//19
f 6//20 17//20 13//20
f 6//21 15//21 17//21
f 13//22 17//22 16//22
f 18//23 17//23 15//23
f 17//24 21//24 16//24
f 21//25 17//25 18//25
f 15//26 20//26 18//26
f 15//27 109//27 20//27
f 18//28 22//28 21//28
f 19//29 16//29 21//29
f 21//30 23//30 19//30
f 22//31 18//31 20//31
f 21//32 26//32 24//32
f 21//33 24//33 23//33
f 26//34 21//34 22//34
f 27//35 22//35 20//35
f 20//36 25//36 27//36
f 27//37 26//37 22//37
f 26//38 27//38 28//38
f 28//39 29//39 26//39
f 26//40 31//40 24//40
f 30//41 26//41 29//41
f 30//42 31//42 26//42
f 30//43 29//43 171//43
f 51//44 24//44 31//44
f 32//45 30//45 171//45
f 32//46 31//46 30//46
f 195//47 31//47 32//47
f 33//48 3//48 34//48
f 35//49 33//49 34//49
f 34//50 37//50 35//50
f 38//51 36//51 35//51
f 37//52 34//52 7//52
f 35//53 39//53 38//53
f 39//54 35//54 37//54
f 40//55 37//55 7//55
f 346//56 38//56 41//56
f 42//57 41//57 38//57
f 39//58 37//58 40//58
f 42//59 38//59 39//59
f 7//60 14//60 40//60
f 43//61 39//61 40//61
f 43//62 42//62 39//62
f 41//63 42//63 374//63
f 16//64 19//64 14//64
f 40//65 14//65 19//65
f 19//66 43//66 40//66
f 44//67 42//67 43//67
f 44//68 374//68 42//68
f 45//69 374//69 44//69
f 47//70 44//70 43//70
f 23//71 43//71 19//71
f 43//72 23//72 47//72
f 46//73 48//73 391//73
f 47//74 46//74 44//74
f 48//75 46//75 47//75
f 409//76 48//76 47//76
f 23//77 49//77 47//77
f 50//78 47//78 49//78
f 409//79 47//79 50//79
f 23//80 24//80 51//80
f 409//81 50//81 52//81
f 51//82 49//82 23//82
f 54//83 50//83 49//83
f 54//84 53//84 50//84
f 54//85 49//85 51//85
f 53//86 54//86 428//86
f 54//87 51//87 55//87
f 56//88 55//88 51//88
f 63//89 57//89 58//89
f 68//90 59//90 69//90
f 79//91 69//91 59//91
f 71//92 70//92 60//92
f 70//93 59//93 60//93
f 61//94 71//94 60//94
f 57//95 76//95 62//95
f 76//96 57//96 63//96
f 65//97 74//97 4//97
f 77//98 4//98 74//98
f 77//99 74//99 65//99
f 70//100 79//100 59//100
f 72//101 61//101 62//101
f 76//102 72//102 62//102
f 64//103 73//103 58//103
f 343//104 73//104 64//104
f 327//105 343//105 64//105
f 75//106 65//106 66//106
f 78//107 77//107 65//107
f 78//108 65//108 75//108
f 67//109 82//109 66//109
f 82//110 67//110 68//110
f 71//111 80//111 70//111
f 72//112 84//112 61//112
f 66//113 81//113 75//113
f 69//114 89//114 68//114
f 79//115 83//115 69//115
f 69//116 83//116 89//116
f 70//117 80//117 92//117
f 61//118 84//118 71//118
f 63//119 58//119 73//119
f 343//120 85//120 73//120
f 82//121 81//121 66//121
f 89//122 82//122 68//122
f 79//123 70//123 92//123
f 93//124 80//124 71//124
f 87//125 63//125 73//125
f 85//126 87//126 73//126
f 77//127 78//127 9//127
f 75//128 94//128 78//128
f 82//129 96//129 81//129
f 82//130 89//130 90//130
f 79//131 91//131 83//131
f 79//132 92//132 86//132
f 92//133 80//133 93//133
f 84//134 93//134 71//134
f 78//135 88//135 9//135
f 78//136 94//136 88//136
f 81//137 96//137 95//137
f 82//138 90//138 96//138
f 90//139 89//139 83//139
f 79//140 86//140 91//140
f 84//141 72//141 97//141
f 97//142 102//142 84//142
f 97//143 72//143 76//143
f 98//144 63//144 87//144
f 98//145 104//145 63//145
f 87//146 99//146 98//146
f 85//147 100//147 87//147
f 87//148 100//148 99//148
f 12//149 9//149 88//149
f 75//150 81//150 94//150
f 101//151 86//151 92//151
f 93//152 101//152 92//152
f 84//153 102//153 93//153
f 97//154 76//154 103//154
f 104//155 76//155 63//155
f 98//156 105//156 104//156
f 106//157 94//157 81//157
f 110//158 81//158 95//158
f 111//159 95//159 96//159
f 83//160 113//160 90//160
f 107//161 91//161 86//161
f 86//162 101//162 115//162
f 104//163 103//163 76//163
f 99//164 108//164 98//164
f 108//165 99//165 100//165
f 12//166 88//166 109//166
f 106//167 81//167 110//167
f 112//168 111//168 96//168
f 90//169 118//169 96//169
f 90//170 113//170 118//170
f 91//171 114//171 83//171
f 107//172 114//172 91//172
f 93//173 116//173 101//173
f 116//174 93//174 102//174
f 98//175 108//175 105//175
f 117//176 109//176 88//176
f 94//177 119//177 88//177
f 88//178 119//178 117//178
f 111//179 110//179 95//179
f 96//180 118//180 112//180
f 86//181 115//181 107//181
f 121//182 101//182 116//182
f 127//183 116//183 102//183
f 369//184 124//184 108//184
f 15//185 12//185 109//185
f 106//186 120//186 94//186
f 94//187 120//187 119//187
f 83//188 114//188 113//188
f 101//189 121//189 115//189
f 127//190 121//190 116//190
f 102//191 122//191 127//191
f 97//192 122//192 102//192
f 97//193 103//193 123//193
f 103//194 104//194 136//194
f 125//195 105//195 108//195
f 105//196 125//196 104//196
f 124//197 125//197 108//197
f 110//198 130//198 106//198
f 106//199 130//199 129//199
f 111//200 130//200 110//200
f 132//201 130//201 111//201
f 112//202 132//202 111//202
f 126//203 113//203 114//203
f 126//204 114//204 107//204
f 103//205 136//205 123//205
f 125//206 136//206 104//206
f 383//207 124//207 369//207
f 128//208 124//208 383//208
f 117//209 119//209 109//209
f 106//210 129//210 120//210
f 131//211 132//211 112//211
f 113//212 133//212 118//212
f 107//213 134//213 126//213
f 115//214 135//214 107//214
f 139//215 115//215 121//215
f 127//216 141//216 121//216
f 123//217 122//217 97//217
f 124//218 143//218 125//218
f 119//219 144//219 109//219
f 145//220 119//220 120//220
f 118//221 131//221 112//221
f 132//222 137//222 130//222
f 137//223 132//223 131//223
f 113//224 138//224 133//224
f 126//225 138//225 113//225
f 135//226 134//226 107//226
f 140//227 139//227 121//227
f 122//228 141//228 127//228
f 121//229 141//229 140//229
f 142//230 123//230 136//230
f 109//231 25//231 20//231
f 144//232 25//232 109//232
f 145//233 144//233 119//233
f 129//234 146//234 120//234
f 146//235 152//235 120//235
f 129//236 130//236 146//236
f 131//237 118//237 133//237
f 147//238 138//238 126//238
f 139//239 135//239 115//239
f 140//240 148//240 139//240
f 160//241 122//241 123//241
f 169//242 141//242 122//242
f 160//243 169//243 122//243
f 143//244 149//244 125//244
f 136//245 125//245 149//245
f 124//246 128//246 143//246
f 128//247 150//247 143//247
f 396//248 150//248 128//248
f 144//249 27//249 25//249
f 151//250 27//250 144//250
f 120//251 153//251 145//251
f 152//252 153//252 120//252
f 145//253 153//253 144//253
f 154//254 144//254 153//254
f 155//255 146//255 130//255
f 156//256 155//256 130//256
f 130//257 137//257 156//257
f 157//258 137//258 131//258
f 147//259 133//259 138//259
f 134//260 147//260 126//260
f 148//261 135//261 139//261
f 158//262 135//262 148//262
f 140//263 141//263 159//263
f 159//264 148//264 140//264
f 160//265 123//265 142//265
f 161//266 142//266 136//266
f 149//267 161//267 136//267
f 143//268 162//268 149//268
f 143//269 150//269 162//269
f 150//270 170//270 162//270
f 151//271 28//271 27//271
f 163//272 151//272 144//272
f 151//273 163//273 28//273
f 28//274 163//274 29//274
f 163//275 171//275 29//275
f 154//276 163//276 144//276
f 153//277 164//277 154//277
f 152//278 165//278 153//278
f 164//279 153//279 165//279
f 146//280 155//280 152//280
f 155//281 172//281 152//281
f 156//282 137//282 157//282
f 133//283 166//283 131//283
f 166//284 157//284 131//284
f 147//285 173//285 133//285
f 134//286 167//286 147//286
f 158//287 134//287 135//287
f 168//288 134//288 158//288
f 168//289 167//289 134//289
f 159//290 141//290 169//290
f 180//291 142//291 161//291
f 149//292 181//292 161//292
f 163//293 183//293 171//293
f 154//294 183//294 163//294
f 164//295 183//295 154//295
f 164//296 165//296 183//296
f 152//297 172//297 165//297
f 187//298 172//298 155//298
f 133//299 173//299 166//299
f 167//300 173//300 147//300
f 168//301 174//301 167//301
f 148//302 176//302 158//302
f 158//303 176//303 168//303
f 175//304 176//304 148//304
f 177//305 148//305 159//305
f 169//306 177//306 159//306
f 160//307 178//307 169//307
f 178//308 177//308 169//308
f 160//309 179//309 178//309
f 179//310 160//310 142//310
f 142//311 180//311 179//311
f 182//312 161//312 181//312
f 149//313 192//313 181//313
f 162//314 192//314 149//314
f 183//315 184//315 171//315
f 184//316 32//316 171//316
f 165//317 185//317 183//317
f 183//318 185//318 184//318
f 165//319 186//319 185//319
f 196//320 165//320 172//320
f 187//321 155//321 156//321
f 198//322 156//322 157//322
f 176//323 201//323 168//323
f 175//324 188//324 176//324
f 148//325 177//325 175//325
f 178//326 189//326 177//326
f 178//327 190//327 189//327
f 189//328 175//328 177//328
f 191//329 179//329 180//329
f 190//330 178//330 179//330
f 180//331 161//331 182//331
f 193//332 150//332 427//332
f 150//333 193//333 170//333
f 194//334 32//334 184//334
f 185//335 186//335 194//335
f 194//336 184//336 185//336
f 165//337 196//337 186//337
f 172//338 187//338 197//338
f 197//339 196//339 172//339
f 198//340 199//340 156//340
f 198//341 157//341 166//341
f 166//342 200//342 198//342
f 173//343 200//343 166//343
f 214//344 173//344 167//344
f 201//345 174//345 168//345
f 188//346 201//346 176//346
f 190//347 202//347 189//347
f 202//348 175//348 189//348
f 203//349 190//349 179//349
f 203//350 179//350 191//350
f 203//351 202//351 190//351
f 204//352 182//352 181//352
f 204//353 219//353 182//353
f 162//354 205//354 192//354
f 192//355 204//355 181//355
f 192//356 206//356 204//356
f 192//357 205//357 206//357
f 205//358 162//358 170//358
f 195//359 32//359 207//359
f 194//360 207//360 32//360
f 194//361 225//361 207//361
f 195//362 51//362 31//362
f 210//363 194//363 208//363
f 194//364 210//364 225//364
f 208//365 209//365 210//365
f 194//366 186//366 208//366
f 196//367 211//367 186//367
f 186//368 211//368 208//368
f 197//369 212//369 196//369
f 212//370 211//370 196//370
f 156//371 213//371 187//371
f 156//372 199//372 213//372
f 215//373 200//373 173//373
f 214//374 215//374 173//374
f 174//375 214//375 167//375
f 201//376 216//376 174//376
f 217//377 188//377 175//377
f 220//378 218//378 219//378
f 182//379 191//379 180//379
f 182//380 219//380 191//380
f 206//381 221//381 220//381
f 220//382 204//382 206//382
f 204//383 220//383 219//383
f 221//384 223//384 220//384
f 221//385 222//385 223//385
f 220//386 223//386 218//386
f 206//387 205//387 221//387
f 170//388 224//388 205//388
f 170//389 193//389 224//389
f 195//390 207//390 240//390
f 51//391 195//391 56//391
f 210//392 209//392 226//392
f 225//393 210//393 226//393
f 208//394 226//394 209//394
f 227//395 226//395 208//395
f 211//396 227//396 208//396
f 227//397 211//397 212//397
f 197//398 244//398 212//398
f 187//399 213//399 197//399
f 200//400 228//400 198//400
f 228//401 199//401 198//401
f 200//402 215//402 228//402
f 174//403 268//403 214//403
f 201//404 229//404 216//404
f 229//405 201//405 188//405
f 246//406 229//406 188//406
f 217//407 175//407 202//407
f 217//408 202//408 230//408
f 203//409 230//409 202//409
f 232//410 219//410 218//410
f 232//411 218//411 231//411
f 232//412 231//412 235//412
f 232//413 191//413 219//413
f 233//414 222//414 221//414
f 231//415 218//415 223//415
f 223//416 236//416 231//416
f 233//417 236//417 222//417
f 222//418 236//418 223//418
f 236//419 235//419 231//419
f 205//420 234//420 221//420
f 193//421 237//421 224//421
f 193//422 238//422 237//422
f 237//423 234//423 205//423
f 224//424 237//424 205//424
f 207//425 225//425 239//425
f 240//426 207//426 239//426
f 241//427 195//427 240//427
f 56//428 195//428 241//428
f 226//429 261//429 242//429
f 242//430 225//430 226//430
f 242//431 239//431 225//431
f 226//432 243//432 261//432
f 226//433 227//433 243//433
f 227//434 245//434 243//434
f 212//435 245//435 227//435
f 244//436 197//436 213//436
f 267//437 228//437 215//437
f 268//438 215//438 214//438
f 216//439 268//439 174//439
f 229//440 246//440 216//440
f 217//441 247//441 188//441
f 188//442 247//442 246//442
f 230//443 248//443 217//443
f 247//444 217//444 248//444
f 230//445 249//445 248//445
f 249//446 271//446 248//446
f 191//447 230//447 203//447
f 230//448 191//448 232//448
f 249//449 230//449 251//449
f 251//450 250//450 249//450
f 271//451 249//451 250//451
f 251//452 232//452 235//452
f 251//453 230//453 232//453
f 251//454 252//454 250//454
f 273//455 250//455 252//455
f 236//456 233//456 253//456
f 236//457 254//457 235//457
f 252//458 251//458 235//458
f 255//459 252//459 235//459
f 252//460 255//460 273//460
f 234//461 233//461 221//461
f 234//462 256//462 233//462
f 253//463 233//463 256//463
f 234//464 258//464 256//464
f 234//465 257//465 258//465
f 258//466 279//466 256//466
f 234//467 237//467 257//467
f 260//468 257//468 237//468
f 260//469 258//469 257//469
f 260//470 259//470 258//470
f 260//471 237//471 238//471
f 262//472 239//472 242//472
f 262//473 240//473 239//473
f 263//474 261//474 243//474
f 212//475 244//475 245//475
f 243//476 245//476 263//476
f 244//477 264//477 245//477
f 213//478 265//478 244//478
f 213//479 199//479 265//479
f 199//480 266//480 265//480
f 228//481 267//481 199//481
f 199//482 267//482 266//482
f 268//483 267//483 215//483
f 268//484 269//484 267//484
f 216//485 246//485 268//485
f 247//486 271//486 246//486
f 271//487 269//487 246//487
f 246//488 269//488 268//488
f 270//489 269//489 271//489
f 248//490 271//490 247//490
f 271//491 272//491 270//491
f 271//492 250//492 272//492
f 273//493 272//493 250//493
f 272//494 274//494 296//494
f 274//495 272//495 273//495
f 255//496 274//496 273//496
f 254//497 236//497 253//497
f 278//498 254//498 253//498
f 254//499 255//499 235//499
f 255//500 254//500 276//500
f 276//501 254//501 278//501
f 255//502 276//502 274//502
f 277//503 276//503 278//503
f 276//504 297//504 274//504
f 277//505 297//505 276//505
f 277//506 275//506 297//506
f 277//507 516//507 275//507
f 256//508 278//508 253//508
f 256//509 279//509 278//509
f 277//510 278//510 279//510
f 259//511 279//511 258//511
f 279//512 259//512 280//512
f 281//513 277//513 279//513
f 280//514 281//514 279//514
f 282//515 283//515 285//515
f 285//516 283//516 284//516
f 261//517 285//517 242//517
f 242//518 285//518 262//518
f 286//519 240//519 262//519
f 286//520 262//520 285//520
f 285//521 261//521 282//521
f 286//522 285//522 284//522
f 287//523 240//523 286//523
f 517//524 240//524 287//524
f 282//525 298//525 283//525
f 282//526 288//526 298//526
f 282//527 289//527 288//527
f 263//528 282//528 261//528
f 290//529 289//529 282//529
f 290//530 263//530 245//530
f 264//531 290//531 245//531
f 263//532 290//532 282//532
f 265//533 264//533 244//533
f 265//534 290//534 264//534
f 265//535 291//535 290//535
f 291//536 289//536 290//536
f 294//537 292//537 291//537
f 266//538 291//538 265//538
f 293//539 291//539 266//539
f 293//540 294//540 291//540
f 267//541 293//541 266//541
f 293//542 309//542 294//542
f 269//543 293//543 267//543
f 270//544 293//544 269//544
f 309//545 293//545 270//545
f 295//546 270//546 296//546
f 296//547 311//547 295//547
f 513//548 310//548 311//548
f 272//549 296//549 270//549
f 311//550 297//550 513//550
f 296//551 274//551 311//551
f 297//552 311//552 274//552
f 275//553 513//553 297//553
f 299//554 284//554 283//554
f 298//555 299//555 283//555
f 298//556 301//556 299//556
f 301//557 300//557 299//557
f 286//558 284//558 303//558
f 303//559 284//559 299//559
f 299//560 302//560 303//560
f 313//561 303//561 302//561
f 286//562 303//562 304//562
f 287//563 286//563 304//563
f 304//564 303//564 305//564
f 305//565 303//565 313//565
f 288//566 301//566 298//566
f 288//567 315//567 301//567
f 306//568 288//568 289//568
f 289//569 291//569 292//569
f 306//570 289//570 292//570
f 307//571 306//571 292//571
f 294//572 307//572 292//572
f 309//573 307//573 294//573
f 308//574 307//574 309//574
f 318//575 308//575 309//575
f 318//576 310//576 319//576
f 270//577 295//577 309//577
f 295//578 318//578 309//578
f 311//579 318//579 295//579
f 310//580 318//580 311//580
f 302//581 299//581 300//581
f 301//582 302//582 300//582
f 302//583 312//583 313//583
f 314//584 313//584 312//584
f 305//585 313//585 314//585
f 315//586 288//586 306//586
f 315//587 302//587 301//587
f 315//588 316//588 302//588
f 316//589 312//589 302//589
f 542//590 312//590 316//590
f 307//591 315//591 306//591
f 317//592 315//592 307//592
f 317//593 316//593 315//593
f 318//594 316//594 317//594
f 316//595 318//595 542//595
f 542//596 318//596 319//596
f 308//597 317//597 307//597
f 308//598 318//598 317//598
f 325//599 323//599 324//599
f 323//600 335//600 324//600
f 334//601 332//601 331//601
f 332//602 334//602 333//602
f 336//603 325//603 324//603
f 326//604 325//604 320//604
f 330//605 329//605 328//605
f 328//606 338//606 330//606
f 328//607 337//607 340//607
f 339//608 331//608 330//608
f 322//609 333//609 341//609
f 322//610 344//610 323//610
f 342//611 320//611 325//611
f 320//612 342//612 321//612
f 321//613 343//613 327//613
f 321//614 345//614 343//614
f 321//615 342//615 345//615
f 339//616 330//616 338//616
f 338//617 328//617 340//617
f 331//618 339//618 347//618
f 334//619 349//619 333//619
f 347//620 334//620 331//620
f 349//621 341//621 333//621
f 344//622 335//622 323//622
f 348//623 324//623 335//623
f 324//624 348//624 336//624
f 337//625 36//625 38//625
f 38//626 346//626 337//626
f 352//627 339//627 338//627
f 344//628 322//628 350//628
f 348//629 335//629 344//629
f 336//630 342//630 325//630
f 343//631 345//631 85//631
f 346//632 340//632 337//632
f 349//633 334//633 353//633
f 334//634 347//634 353//634
f 322//635 341//635 350//635
f 355//636 348//636 344//636
f 345//637 351//637 85//637
f 358//638 340//638 346//638
f 354//639 350//639 341//639
f 341//640 349//640 354//640
f 355//641 344//641 350//641
f 345//642 342//642 351//642
f 358//643 346//643 41//643
f 340//644 358//644 338//644
f 352//645 347//645 339//645
f 353//646 347//646 357//646
f 355//647 356//647 348//647
f 361//648 336//648 348//648
f 342//649 336//649 361//649
f 100//650 85//650 351//650
f 338//651 364//651 352//651
f 352//652 359//652 347//652
f 359//653 352//653 366//653
f 371//654 349//654 353//654
f 354//655 349//655 367//655
f 350//656 354//656 360//656
f 350//657 360//657 355//657
f 361//658 348//658 356//658
f 351//659 362//659 100//659
f 351//660 342//660 363//660
f 363//661 342//661 379//661
f 41//662 370//662 358//662
f 364//663 338//663 358//663
f 365//664 352//664 364//664
f 375//665 359//665 366//665
f 347//666 359//666 357//666
f 367//667 349//667 371//667
f 368//668 342//668 361//668
f 363//669 362//669 351//669
f 369//670 100//670 362//670
f 100//671 369//671 108//671
f 353//672 357//672 371//672
f 367//673 372//673 354//673
f 372//674 360//674 354//674
f 373//675 361//675 356//675
f 342//676 368//676 379//676
f 370//677 41//677 374//677
f 352//678 365//678 366//678
f 377//679 375//679 366//679
f 378//680 355//680 360//680
f 382//681 355//681 378//681
f 373//682 356//682 355//682
f 368//683 361//683 373//683
f 370//684 374//684 45//684
f 358//685 370//685 386//685
f 387//686 364//686 358//686
f 364//687 387//687 365//687
f 387//688 358//688 386//688
f 366//689 365//689 376//689
f 377//690 366//690 376//690
f 380//691 359//691 375//691
f 380//692 357//692 359//692
f 393//693 357//693 380//693
f 381//694 367//694 371//694
f 371//695 357//695 381//695
f 372//696 378//696 360//696
f 373//697 355//697 382//697
f 384//698 363//698 379//698
f 384//699 362//699 363//699
f 362//700 384//700 383//700
f 386//701 370//701 45//701
f 45//702 44//702 385//702
f 385//703 44//703 46//703
f 386//704 45//704 385//704
f 388//705 380//705 375//705
f 357//706 393//706 381//706
f 372//707 367//707 394//707
f 394//708 367//708 381//708
f 389//709 372//709 394//709
f 372//710 389//710 378//710
f 378//711 390//711 382//711
f 368//712 373//712 406//712
f 390//713 395//713 382//713
f 362//714 383//714 369//714
f 391//715 385//715 46//715
f 386//716 385//716 391//716
f 392//717 377//717 376//717
f 375//718 377//718 401//718
f 393//719 380//719 388//719
f 382//720 395//720 373//720
f 128//721 383//721 396//721
f 408//722 396//722 383//722
f 399//723 365//723 387//723
f 391//724 398//724 386//724
f 387//725 386//725 398//725
f 391//726 397//726 398//726
f 376//727 365//727 400//727
f 377//728 392//728 401//728
f 388//729 375//729 402//729
f 401//730 402//730 375//730
f 403//731 381//731 393//731
f 395//732 406//732 373//732
f 368//733 406//733 407//733
f 379//734 368//734 407//734
f 418//735 384//735 379//735
f 383//736 384//736 408//736
f 48//737 397//737 391//737
f 399//738 387//738 398//738
f 400//739 365//739 399//739
f 376//740 400//740 392//740
f 404//741 388//741 402//741
f 388//742 404//742 393//742
f 404//743 414//743 393//743
f 394//744 381//744 403//744
f 413//745 389//745 394//745
f 378//746 389//746 390//746
f 390//747 389//747 405//747
f 407//748 418//748 379//748
f 409//749 397//749 48//749
f 52//750 397//750 409//750
f 397//751 52//751 410//751
f 422//752 398//752 410//752
f 399//753 398//753 422//753
f 397//754 410//754 398//754
f 400//755 423//755 392//755
f 411//756 402//756 401//756
f 404//757 402//757 412//757
f 414//758 404//758 424//758
f 413//759 394//759 403//759
f 393//760 414//760 403//760
f 415//761 405//761 389//761
f 415//762 389//762 413//762
f 395//763 390//763 416//763
f 417//764 406//764 395//764
f 417//765 407//765 406//765
f 426//766 407//766 417//766
f 416//767 417//767 395//767
f 418//768 407//768 426//768
f 384//769 420//769 419//769
f 420//770 384//770 418//770
f 419//771 408//771 384//771
f 419//772 396//772 408//772
f 53//773 52//773 50//773
f 52//774 53//774 421//774
f 410//775 52//775 421//775
f 422//776 410//776 421//776
f 429//777 422//777 421//777
f 421//778 53//778 429//778
f 430//779 399//779 422//779
f 392//780 411//780 401//780
f 424//781 404//781 412//781
f 402//782 411//782 412//782
f 413//783 403//783 434//783
f 390//784 405//784 425//784
f 390//785 425//785 416//785
f 415//786 425//786 405//786
f 419//787 427//787 396//787
f 53//788 428//788 436//788
f 436//789 429//789 53//789
f 399//790 430//790 431//790
f 431//791 400//791 399//791
f 423//792 400//792 431//792
f 430//793 422//793 429//793
f 432//794 411//794 392//794
f 411//795 433//795 412//795
f 442//796 424//796 412//796
f 442//797 435//797 414//797
f 442//798 414//798 424//798
f 414//799 435//799 403//799
f 403//800 435//800 434//800
f 415//801 413//801 443//801
f 425//802 415//802 444//802
f 150//803 396//803 427//803
f 437//804 436//804 428//804
f 428//805 54//805 55//805
f 428//806 438//806 437//806
f 438//807 428//807 55//807
f 436//808 437//808 439//808
f 439//809 437//809 438//809
f 429//810 436//810 439//810
f 429//811 439//811 430//811
f 439//812 440//812 430//812
f 441//813 431//813 430//813
f 423//814 431//814 441//814
f 392//815 423//815 432//815
f 450//816 442//816 412//816
f 411//817 432//817 433//817
f 413//818 434//818 443//818
f 425//819 444//819 416//819
f 444//820 452//820 416//820
f 417//821 416//821 452//821
f 445//822 420//822 418//822
f 445//823 418//823 426//823
f 445//824 419//824 420//824
f 419//825 446//825 427//825
f 447//826 438//826 55//826
f 448//827 438//827 447//827
f 447//828 55//828 56//828
f 439//829 438//829 440//829
f 438//830 448//830 440//830
f 440//831 448//831 457//831
f 440//832 459//832 430//832
f 449//833 432//833 423//833
f 449//834 423//834 441//834
f 441//835 430//835 459//835
f 450//836 412//836 433//836
f 443//837 434//837 461//837
f 451//838 444//838 415//838
f 426//839 417//839 453//839
f 454//840 417//840 452//840
f 445//841 426//841 453//841
f 456//842 445//842 465//842
f 427//843 446//843 193//843
f 455//844 419//844 445//844
f 455//845 445//845 456//845
f 455//846 446//846 419//846
f 469//847 447//847 56//847
f 447//848 457//848 448//848
f 459//849 440//849 457//849
f 458//850 457//850 447//850
f 460//851 432//851 449//851
f 432//852 460//852 433//852
f 435//853 461//853 434//853
f 461//854 435//854 462//854
f 451//855 415//855 443//855
f 451//856 443//856 463//856
f 451//857 464//857 444//857
f 453//858 417//858 454//858
f 464//859 452//859 444//859
f 454//860 452//860 464//860
f 465//861 445//861 453//861
f 453//862 466//862 465//862
f 466//863 468//863 465//863
f 468//864 466//864 477//864
f 455//865 456//865 467//865
f 455//866 467//866 446//866
f 468//867 456//867 465//867
f 467//868 456//868 468//868
f 478//869 467//869 468//869
f 478//870 468//870 477//870
f 447//871 469//871 470//871
f 458//872 447//872 470//872
f 458//873 470//873 471//873
f 471//874 470//874 480//874
f 472//875 457//875 458//875
f 458//876 471//876 472//876
f 472//877 459//877 457//877
f 481//878 459//878 472//878
f 459//879 481//879 441//879
f 449//880 482//880 460//880
f 482//881 449//881 441//881
f 460//882 473//882 433//882
f 450//883 433//883 473//883
f 474//884 442//884 450//884
f 462//885 435//885 442//885
f 443//886 461//886 463//886
f 475//887 464//887 451//887
f 453//888 454//888 464//888
f 476//889 466//889 453//889
f 477//890 466//890 479//890
f 491//891 476//891 453//891
f 238//892 193//892 446//892
f 478//893 495//893 467//893
f 494//894 478//894 477//894
f 494//895 477//895 479//895
f 467//896 238//896 446//896
f 467//897 496//897 238//897
f 469//898 56//898 241//898
f 499//899 472//899 471//899
f 481//900 472//900 499//900
f 499//901 441//901 481//901
f 483//902 482//902 441//902
f 483//903 460//903 482//903
f 460//904 483//904 502//904
f 474//905 450//905 473//905
f 462//906 442//906 484//906
f 484//907 442//907 474//907
f 461//908 462//908 506//908
f 462//909 484//909 485//909
f 506//910 462//910 485//910
f 486//911 463//911 461//911
f 487//912 451//912 463//912
f 461//913 506//913 486//913
f 475//914 451//914 487//914
f 488//915 475//915 487//915
f 453//916 464//916 491//916
f 464//917 475//917 491//917
f 488//918 491//918 475//918
f 490//919 491//919 488//919
f 490//920 488//920 489//920
f 466//921 476//921 479//921
f 476//922 491//922 490//922
f 476//923 490//923 492//923
f 476//924 492//924 493//924
f 493//925 479//925 476//925
f 478//926 494//926 495//926
f 515//927 495//927 494//927
f 260//928 496//928 259//928
f 496//929 260//929 238//929
f 495//930 496//930 467//930
f 495//931 280//931 496//931
f 241//932 240//932 517//932
f 241//933 517//933 497//933
f 470//934 469//934 497//934
f 497//935 469//935 241//935
f 498//936 471//936 480//936
f 498//937 480//937 470//937
f 470//938 497//938 518//938
f 498//939 499//939 471//939
f 500//940 499//940 501//940
f 483//941 441//941 499//941
f 499//942 500//942 483//942
f 483//943 528//943 502//943
f 503//944 473//944 460//944
f 460//945 502//945 503//945
f 504//946 474//946 473//946
f 504//947 473//947 503//947
f 474//948 504//948 484//948
f 485//949 484//949 504//949
f 507//950 485//950 504//950
f 504//951 505//951 507//951
f 508//952 486//952 506//952
f 507//953 508//953 506//953
f 506//954 485//954 507//954
f 508//955 463//955 486//955
f 508//956 487//956 463//956
f 509//957 508//957 507//957
f 510//958 508//958 509//958
f 489//959 487//959 508//959
f 488//960 487//960 489//960
f 489//961 508//961 510//961
f 511//962 490//962 489//962
f 511//963 489//963 510//963
f 512//964 511//964 510//964
f 511//965 512//965 513//965
f 511//966 513//966 275//966
f 490//967 511//967 514//967
f 492//968 490//968 514//968
f 275//969 514//969 511//969
f 494//970 479//970 493//970
f 492//971 514//971 493//971
f 515//972 494//972 493//972
f 516//973 493//973 514//973
f 516//974 281//974 493//974
f 515//975 493//975 281//975
f 275//976 516//976 514//976
f 496//977 280//977 259//977
f 277//978 281//978 516//978
f 495//979 515//979 281//979
f 495//980 281//980 280//980
f 470//981 518//981 498//981
f 519//982 498//982 518//982
f 518//983 497//983 520//983
f 497//984 521//984 520//984
f 517//985 521//985 497//985
f 522//986 519//986 518//986
f 522//987 518//987 520//987
f 522//988 520//988 523//988
f 519//989 499//989 498//989
f 501//990 499//990 519//990
f 501//991 519//991 522//991
f 501//992 522//992 523//992
f 526//993 500//993 501//993
f 526//994 524//994 528//994
f 524//995 525//995 528//995
f 526//996 501//996 524//996
f 483//997 500//997 526//997
f 528//998 483//998 526//998
f 525//999 529//999 528//999
f 527//1000 502//1000 528//1000
f 530//1001 527//1001 529//1001
f 527//1002 528//1002 529//1002
f 503//1003 502//1003 527//1003
f 503//1004 527//1004 530//1004
f 530//1005 505//1005 503//1005
f 505//1006 504//1006 503//1006
f 505//1007 530//1007 509//1007
f 509//1008 530//1008 529//1008
f 310//1009 531//1009 509//1009
f 531//1010 310//1010 513//1010
f 509//1011 507//1011 505//1011
f 510//1012 509//1012 531//1012
f 531//1013 513//1013 532//1013
f 510//1014 531//1014 532//1014
f 532//1015 512//1015 510//1015
f 512//1016 532//1016 513//1016
f 304//1017 517//1017 287//1017
f 521//1018 304//1018 305//1018
f 533//1019 521//1019 305//1019
f 521//1020 517//1020 304//1020
f 523//1021 520//1021 534//1021
f 533//1022 520//1022 521//1022
f 534//1023 520//1023 533//1023
f 535//1024 534//1024 533//1024
f 524//1025 536//1025 537//1025
f 545//1026 534//1026 535//1026
f 524//1027 501//1027 523//1027
f 536//1028 524//1028 523//1028
f 545//1029 523//1029 534//1029
f 524//1030 537//1030 525//1030
f 538//1031 525//1031 537//1031
f 540//1032 525//1032 538//1032
f 539//1033 546//1033 319//1033
f 540//1034 529//1034 525//1034
f 538//1035 539//1035 540//1035
f 538//1036 546//1036 539//1036
f 319//1037 541//1037 539//1037
f 319//1038 310//1038 541//1038
f 540//1039 509//1039 529//1039
f 541//1040 540//1040 539//1040
f 541//1041 509//1041 540//1041
f 509//1042 541//1042 310//1042
f 535//1043 533//1043 305//1043
f 305//1044 314//1044 535//1044
f 312//1045 544//1045 314//1045
f 312//1046 542//1046 544//1046
f 536//1047 523//1047 545//1047
f 544//1048 535//1048 314//1048
f 545//1049 535//1049 544//1049
f 545//1050 544//1050 542//1050
f 545//1051 542//1051 543//1051
f 545//1052 537//1052 536//1052
f 537//1053 545//1053 538//1053
f 538//1054 545//1054 543//1054
f 319//1055 546//1055 542//1055
f 546//1056 543//1056 542//1056
f 543//1057 546//1057 538//1057
